<svg aria-hidden="true" style="position: absolute; width: 0; height: 0; overflow: hidden;" version="1.1" xmlns="http://www.w3.org/2000/svg" xmlns:xlink="http://www.w3.org/1999/xlink">
<defs>
<symbol id="adobe-after-effects-logo-icon" viewBox="0 0 33 32">
<path fill="#00005b" style="fill: var(--color1, #00005b)" d="M5.809 0h21.202c3.208 0 5.809 2.601 5.809 5.809v20.382c0 3.208-2.601 5.809-5.809 5.809h-21.202c-3.208 0-5.809-2.601-5.809-5.809v-20.382c0-3.208 2.601-5.809 5.809-5.809z"></path>
<path fill="#99f" style="fill: var(--color2, #99f)" d="M13.128 19.151h-5.022l-1.050 3.282c-0.023 0.114-0.123 0.198-0.241 0.198-0.007 0-0.015-0-0.022-0.001l0.001 0h-2.56c-0.148 0-0.197-0.082-0.164-0.246l4.414-12.685c0-0.131 0-0.263 0.131-0.443 0.012-0.133 0.019-0.287 0.019-0.443s-0.007-0.31-0.020-0.463l0.001 0.020c-0.018-0.022-0.030-0.051-0.030-0.082 0-0.071 0.057-0.128 0.128-0.128 0.039 0 0.075 0.018 0.098 0.046l0 0h3.545c0.098 0 0.164 0 0.164 0.098l5.005 14.031c0 0.148 0 0.213-0.131 0.213h-2.872c-0.011 0.002-0.023 0.003-0.035 0.003-0.089 0-0.164-0.065-0.178-0.15l-0-0.001zM8.894 16.41h3.479c0-0.295-0.197-0.624-0.312-0.985s-0.246-0.656-0.377-1.165l-0.394-1.247-0.361-1.214c-0.115-0.394-0.213-0.755-0.295-1.067v0c-0.131 0.687-0.29 1.277-0.487 1.848l0.028-0.092c-0.197 0.656-0.41 1.329-0.624 2.018s-0.427 1.329-0.624 1.92z"></path>
<path fill="#99f" style="fill: var(--color2, #99f)" d="M25.633 17.887h-4.3c0.054 0.456 0.206 0.868 0.434 1.226l-0.007-0.012c0.245 0.369 0.586 0.656 0.986 0.831l0.015 0.006c0.481 0.208 1.042 0.33 1.631 0.33 0.038 0 0.076-0 0.114-0.002l-0.006 0c0.506-0 0.999-0.054 1.474-0.156l-0.046 0.008c0.455-0.068 0.864-0.183 1.25-0.341l-0.036 0.013s0.115 0 0.115 0.115v2.101c0.001 0.010 0.002 0.022 0.002 0.034 0 0.098-0.053 0.183-0.132 0.228l-0.001 0.001c-0.394 0.175-0.852 0.313-1.33 0.39l-0.032 0.004c-0.508 0.107-1.091 0.168-1.688 0.168-0.087 0-0.174-0.001-0.261-0.004l0.013 0c-0.069 0.003-0.151 0.004-0.232 0.004-0.864 0-1.686-0.177-2.434-0.496l0.041 0.015c-0.682-0.313-1.257-0.751-1.717-1.29l-0.006-0.007c-0.406-0.506-0.726-1.102-0.925-1.751l-0.010-0.038c-0.203-0.623-0.319-1.34-0.319-2.084s0.117-1.461 0.333-2.133l-0.014 0.049c0.242-0.719 0.594-1.341 1.042-1.88l-0.008 0.010c0.445-0.538 0.991-0.974 1.612-1.284l0.029-0.013c0.624-0.282 1.354-0.446 2.121-0.446 0.062 0 0.124 0.001 0.185 0.003l-0.009-0c0.043-0.001 0.094-0.002 0.145-0.002 0.714 0 1.392 0.152 2.004 0.425l-0.031-0.012c0.58 0.251 1.065 0.625 1.438 1.092l0.006 0.007c0.348 0.439 0.628 0.951 0.811 1.508l0.010 0.035c0.159 0.489 0.254 1.052 0.263 1.637l0 0.004c0 0.328 0 0.624 0 0.886s0 0.443 0 0.574c-0.016 0.094-0.097 0.165-0.194 0.165-0.007 0-0.013-0-0.020-0.001l0.001 0h-0.443c-0.118 0.009-0.255 0.015-0.394 0.015s-0.276-0.005-0.412-0.016l0.018 0.001c-0.459 0.148-0.738 0.082-1.083 0.082zM21.333 15.885h3.61c0 0 0.001 0 0.002 0 0.122 0 0.235-0.037 0.329-0.1l-0.002 0.001v-0.148c-0.002-0.182-0.032-0.357-0.086-0.521l0.003 0.012c-0.242-0.731-0.919-1.249-1.717-1.249-0.025 0-0.050 0.001-0.075 0.002l0.004-0c-0.035-0.002-0.075-0.004-0.116-0.004-0.738 0-1.379 0.416-1.7 1.027l-0.005 0.011c-0.141 0.281-0.245 0.607-0.293 0.951l-0.002 0.017z"></path>
</symbol>
<symbol id="adobe-illustrator-logo-icon" viewBox="0 0 33 32">
<path fill="#300" style="fill: var(--color3, #300)" d="M5.809 0h21.202c3.208 0 5.809 2.601 5.809 5.809v20.382c0 3.208-2.601 5.809-5.809 5.809h-21.202c-3.208 0-5.809-2.601-5.809-5.809v-20.382c0-3.208 2.601-5.809 5.809-5.809z"></path>
<path fill="#ff9a00" style="fill: var(--color4, #ff9a00)" d="M15.902 19.2h-5.087l-1.034 3.282c-0.015 0.113-0.111 0.2-0.228 0.2-0.012 0-0.024-0.001-0.036-0.003l0.001 0h-2.576q-0.23 0-0.148-0.246l4.398-12.751c0-0.131 0-0.279 0.131-0.443 0.015-0.133 0.024-0.287 0.024-0.443s-0.009-0.31-0.026-0.462l0.002 0.019c0.009-0.083 0.078-0.148 0.163-0.148 0 0 0.001 0 0.001 0h3.577c0.007-0.001 0.015-0.002 0.023-0.002 0.074 0 0.136 0.049 0.157 0.115l0 0.001 4.923 14.096c0 0.148 0 0.213-0.131 0.213h-2.79c-0.011 0.002-0.023 0.003-0.035 0.003-0.089 0-0.163-0.065-0.178-0.15l-0-0.001zM11.618 16.41h3.479l-0.328-0.968c-0.115-0.377-0.246-0.771-0.377-1.182l-0.394-1.264c-0.131-0.41-0.263-0.821-0.361-1.198s-0.213-0.755-0.312-1.067v0c-0.197 0.591-0.197 1.182-0.46 1.756s-0.41 1.329-0.624 2.018-0.427 1.329-0.624 1.904z"></path>
<path fill="#ff9a00" style="fill: var(--color4, #ff9a00)" d="M23.221 10.535c-0.012 0-0.027 0.001-0.042 0.001-0.459 0-0.874-0.189-1.172-0.493l-0-0c-0.286-0.295-0.463-0.698-0.463-1.142 0-0.037 0.001-0.074 0.004-0.11l-0 0.005c-0.001-0.017-0.001-0.037-0.001-0.058 0-0.459 0.189-0.875 0.493-1.173l0-0c0.311-0.295 0.732-0.476 1.196-0.476 0.007 0 0.013 0 0.020 0h-0.001c0.027-0.002 0.058-0.002 0.089-0.002 0.452 0 0.861 0.183 1.158 0.478l-0-0c0.276 0.309 0.444 0.718 0.444 1.167 0 0.022-0 0.044-0.001 0.067l0-0.003c0.002 0.029 0.003 0.064 0.003 0.098 0 0.906-0.735 1.641-1.641 1.641-0.001 0-0.002 0-0.003 0h0zM21.694 22.4v-10.535c0-0.131 0-0.197 0.18-0.197h2.741c0.115 0 0.164 0 0.164 0.197v10.535c0 0.148 0 0.213-0.164 0.213h-2.724c-0.131 0-0.197-0.066-0.197-0.213z"></path>
</symbol>
<symbol id="adobe-photoshop-logo-icon" viewBox="0 0 33 32">
<path fill="#001e36" style="fill: var(--color5, #001e36)" d="M5.809 0h21.202c3.208 0 5.809 2.601 5.809 5.809v20.382c0 3.208-2.601 5.809-5.809 5.809h-21.202c-3.208 0-5.809-2.601-5.809-5.809v-20.382c0-3.208 2.601-5.809 5.809-5.809z"></path>
<path fill="#31a8ff" style="fill: var(--color6, #31a8ff)" d="M7.385 22.433v-14.064c0-0.098 0-0.148 0.131-0.148h4.25c0.074-0.002 0.161-0.004 0.249-0.004 0.92 0 1.805 0.152 2.631 0.431l-0.058-0.017c0.708 0.234 1.316 0.599 1.825 1.070l-0.003-0.003c0.433 0.423 0.774 0.938 0.991 1.514l0.010 0.029c0.198 0.519 0.312 1.118 0.312 1.745 0 0.010-0 0.019-0 0.029v-0.001c0.002 0.053 0.003 0.116 0.003 0.178 0 1.016-0.308 1.96-0.835 2.744l0.011-0.018c-0.548 0.746-1.297 1.315-2.167 1.631l-0.032 0.010c-0.864 0.313-1.861 0.494-2.9 0.494-0.059 0-0.118-0.001-0.177-0.002l0.009 0h-1.264v4.382c0 0.002 0 0.004 0 0.006 0 0.091-0.062 0.168-0.146 0.19l-0.001 0h-2.675c-0.115-0.016-0.164-0.066-0.164-0.197zM10.371 10.946v4.496h1.247c0.007 0 0.014 0 0.022 0 0.579 0 1.136-0.096 1.655-0.273l-0.036 0.011c0.451-0.127 0.831-0.38 1.113-0.718l0.003-0.004c0.248-0.335 0.397-0.757 0.397-1.213 0-0.041-0.001-0.081-0.004-0.122l0 0.006c-0.002-0.447-0.123-0.866-0.334-1.226l0.006 0.011c-0.229-0.347-0.555-0.614-0.938-0.767l-0.014-0.005c-0.445-0.178-0.962-0.281-1.502-0.281-0.049 0-0.097 0.001-0.146 0.002l0.007-0h-1.477z"></path>
<path fill="#31a8ff" style="fill: var(--color6, #31a8ff)" d="M26.256 14.622c-0.378-0.202-0.817-0.366-1.278-0.469l-0.035-0.007c-0.449-0.104-0.965-0.164-1.495-0.164-0.011 0-0.022 0-0.032 0h0.002c-0.041-0.002-0.089-0.004-0.137-0.004-0.25 0-0.49 0.037-0.717 0.107l0.017-0.005c-0.172 0.041-0.319 0.134-0.426 0.261l-0.001 0.001c-0.062 0.107-0.098 0.236-0.098 0.373 0 0.002 0 0.003 0 0.005v-0c0.001 0.138 0.050 0.264 0.132 0.362l-0.001-0.001c0.126 0.148 0.279 0.27 0.451 0.357l0.008 0.004c0.253 0.137 0.572 0.286 0.899 0.418l0.069 0.025c0.803 0.275 1.497 0.613 2.14 1.025l-0.040-0.024c0.448 0.288 0.813 0.669 1.075 1.117l0.008 0.016c0.197 0.389 0.313 0.848 0.313 1.334 0 0.027-0 0.054-0.001 0.081l0-0.004c0.003 0.049 0.004 0.107 0.004 0.165 0 0.648-0.198 1.25-0.537 1.749l0.007-0.011c-0.381 0.537-0.899 0.955-1.503 1.206l-0.023 0.008c-0.68 0.282-1.469 0.446-2.296 0.446-0.064 0-0.128-0.001-0.191-0.003l0.009 0c-0.045 0.001-0.099 0.001-0.152 0.001-0.608 0-1.202-0.060-1.776-0.175l0.058 0.010c-0.53-0.11-0.997-0.263-1.439-0.461l0.044 0.017c-0.089-0.043-0.149-0.133-0.149-0.237 0-0.009 0-0.018 0.001-0.027l-0 0.001v-2.429c-0.011-0.019-0.018-0.041-0.018-0.066s0.007-0.047 0.018-0.066l-0 0.001c0.016-0.012 0.036-0.018 0.057-0.018s0.041 0.007 0.058 0.019l-0-0c0.472 0.289 1.019 0.52 1.601 0.664l0.040 0.009c0.489 0.124 1.053 0.201 1.633 0.213l0.008 0c0.045 0.003 0.097 0.005 0.15 0.005 0.355 0 0.692-0.074 0.998-0.208l-0.016 0.006c0.215-0.102 0.361-0.317 0.361-0.566 0-0.003-0-0.006-0-0.009v0c-0.021-0.233-0.145-0.433-0.326-0.556l-0.003-0.002c-0.387-0.251-0.833-0.463-1.306-0.613l-0.039-0.011c-0.745-0.267-1.39-0.605-1.979-1.018l0.026 0.017c-0.43-0.297-0.779-0.683-1.025-1.132l-0.009-0.017c-0.197-0.388-0.313-0.845-0.313-1.33 0-0.023 0-0.046 0.001-0.068l-0 0.003c-0-0.006-0-0.014-0-0.021 0-0.6 0.171-1.159 0.467-1.633l-0.008 0.013c0.343-0.551 0.829-0.985 1.408-1.255l0.020-0.008c0.71-0.352 1.546-0.559 2.43-0.559 0.029 0 0.057 0 0.086 0.001l-0.004-0c0.040-0.001 0.088-0.001 0.135-0.001 0.531 0 1.053 0.042 1.562 0.123l-0.056-0.007c0.439 0.056 0.838 0.172 1.208 0.339l-0.027-0.011c0.063 0.010 0.113 0.055 0.131 0.114l0 0.001c0.004 0.025 0.006 0.053 0.006 0.082s-0.002 0.057-0.006 0.085l0-0.003v2.281c0.013 0.018 0.021 0.041 0.021 0.066s-0.008 0.047-0.021 0.066l0-0z"></path>
</symbol>
<symbol id="adobe-premiere-pro-logo-icon" viewBox="0 0 33 32">
<path fill="#00005b" style="fill: var(--color1, #00005b)" d="M5.809 0.016h21.202c0 0 0 0 0 0 3.206 0 5.807 2.59 5.826 5.791v20.465c0 0.005 0 0.011 0 0.016 0 3.199-2.594 5.793-5.793 5.793-0.006 0-0.012 0-0.017-0h-21.218c0 0-0 0-0 0-3.199 0-5.793-2.594-5.793-5.793 0-0.006 0-0.012 0-0.017v0.001-20.447c0.009-3.199 2.595-5.791 5.791-5.809h0.002z"></path>
<path fill="#99f" style="fill: var(--color2, #99f)" d="M7.795 22.449v-14.080c-0.001-0.005-0.001-0.011-0.001-0.016 0-0.072 0.059-0.131 0.131-0.131 0 0 0.001 0 0.001 0h4.25c0.056-0.001 0.122-0.002 0.188-0.002 0.937 0 1.837 0.157 2.676 0.446l-0.058-0.017c0.717 0.251 1.332 0.638 1.839 1.133l-0.001-0.001c0.437 0.426 0.779 0.947 0.992 1.53l0.009 0.028c0.157 0.461 0.248 0.992 0.248 1.544 0 0.052-0.001 0.103-0.002 0.154l0-0.007c0.002 0.053 0.003 0.116 0.003 0.178 0 1.016-0.308 1.96-0.835 2.744l0.011-0.018c-0.548 0.746-1.297 1.315-2.167 1.631l-0.032 0.010c-0.867 0.312-1.867 0.493-2.909 0.493-0.039 0-0.078-0-0.116-0.001l0.006 0h-1.264v4.382c0.002 0.010 0.003 0.022 0.003 0.033 0 0.086-0.066 0.157-0.151 0.164l-0.001 0h-2.658c-0.115-0.016-0.164-0.066-0.164-0.197zM10.782 10.864v4.595h1.247c0.022 0 0.048 0.001 0.073 0.001 0.56 0 1.099-0.090 1.604-0.257l-0.036 0.010c0.443-0.131 0.82-0.37 1.114-0.688l0.001-0.002c0.23-0.34 0.367-0.76 0.367-1.212 0-0.059-0.002-0.117-0.007-0.174l0 0.008c0-0.009 0-0.019 0-0.030 0-0.453-0.135-0.874-0.366-1.226l0.005 0.008c-0.224-0.357-0.551-0.631-0.939-0.783l-0.013-0.005c-0.45-0.178-0.971-0.281-1.516-0.281-0.044 0-0.088 0.001-0.131 0.002l0.006-0h-1.477z"></path>
<path fill="#99f" style="fill: var(--color2, #99f)" d="M20.053 11.668h2.396c0.002-0 0.005-0 0.008-0 0.131 0 0.241 0.090 0.271 0.212l0 0.002c0.040 0.101 0.069 0.217 0.082 0.339l0 0.006c0.004 0.064 0.007 0.138 0.007 0.213s-0.003 0.15-0.007 0.223l0.001-0.010c0.060 0.131 0.121 0.294 0.172 0.462l0.008 0.031c0.406-0.47 0.89-0.859 1.434-1.152l0.027-0.013c0.564-0.3 1.233-0.476 1.943-0.476 0.021 0 0.041 0 0.062 0l-0.003-0c0.082 0 0.18 0 0.18 0.148v0 2.642c0 0.115 0 0.164-0.213 0.164-0.073-0.003-0.158-0.005-0.244-0.005-0.437 0-0.862 0.050-1.27 0.144l0.038-0.007c-0.437 0.090-0.821 0.215-1.186 0.376l0.037-0.015c-0.268 0.132-0.496 0.302-0.688 0.507l-0.001 0.001v6.974c0 0.148 0 0.197-0.18 0.197h-2.708c-0.006 0.001-0.012 0.001-0.019 0.001-0.098 0-0.178-0.071-0.194-0.164l-0-0.001v-7.68c0-0.328 0-0.673 0-1.034s0-0.706 0-1.067c0.008-0.137 0.012-0.298 0.012-0.46s-0.004-0.322-0.013-0.482l0.001 0.022c-0.001-0.006-0.002-0.013-0.002-0.020 0-0.061 0.042-0.113 0.099-0.127l0.001-0z"></path>
</symbol>
<symbol id="blender-logo-icon" viewBox="0 0 39 32">
<path fill="#fff" style="fill: var(--color7, #fff)" d="M15.478 17.684c0.201-2.561 1.431-4.801 3.274-6.329l0.015-0.012c1.913-1.569 4.385-2.52 7.079-2.52s5.166 0.951 7.099 2.535l-0.020-0.016c1.857 1.54 3.088 3.78 3.287 6.309l0.002 0.032c0.007 0.133 0.011 0.289 0.011 0.446 0 2.561-1.077 4.871-2.803 6.501l-0.004 0.004c-1.977 1.867-4.65 3.014-7.591 3.014s-5.615-1.147-7.597-3.019l0.005 0.005c-1.709-1.619-2.772-3.904-2.772-6.438 0-0.181 0.005-0.36 0.016-0.538l-0.001 0.024z"></path>
<path fill="#265787" style="fill: var(--color8, #265787)" d="M20.539 17.979c0.083-1.327 0.714-2.492 1.666-3.282l0.008-0.006c0.98-0.809 2.25-1.299 3.633-1.299s2.653 0.49 3.643 1.307l-0.010-0.008c0.959 0.8 1.593 1.962 1.693 3.273l0.001 0.016c0.002 0.056 0.004 0.122 0.004 0.189 0 1.32-0.553 2.511-1.439 3.354l-0.002 0.002c-1.021 0.98-2.409 1.583-3.938 1.583s-2.918-0.603-3.94-1.585l0.002 0.002c-0.823-0.82-1.332-1.955-1.332-3.208 0-0.118 0.005-0.236 0.013-0.352l-0.001 0.015z"></path>
<path fill="#ea7600" style="fill: var(--color9, #ea7600)" d="M12.071 20.638c0.040 0.836 0.188 1.623 0.431 2.367l-0.018-0.063c0.556 1.782 1.455 3.317 2.627 4.597l-0.008-0.009c1.24 1.355 2.749 2.441 4.445 3.177l0.084 0.033c1.768 0.798 3.833 1.263 6.006 1.263s4.238-0.465 6.1-1.301l-0.094 0.038c1.795-0.807 3.315-1.924 4.558-3.297l0.010-0.012c1.148-1.258 2.038-2.771 2.576-4.444l0.024-0.086c0.251-0.742 0.433-1.605 0.509-2.499l0.003-0.041c0.047-0.378 0.074-0.816 0.074-1.26s-0.027-0.882-0.079-1.312l0.005 0.052c-0.238-1.711-0.823-3.249-1.682-4.595l0.027 0.046c-0.83-1.317-1.844-2.432-3.023-3.346l-0.029-0.022-12.367-9.433c-0.43-0.286-0.958-0.457-1.526-0.457s-1.096 0.171-1.536 0.463l0.010-0.006c-0.437 0.242-0.728 0.701-0.728 1.227 0 0.443 0.206 0.838 0.528 1.095l0.003 0.002 5.12 4.175h-15.675c-0.014-0-0.031-0-0.048-0-1.264 0-2.337 0.816-2.723 1.949l-0.006 0.020c-0.256 1.103 0.61 1.969 1.969 1.969h7.877l-14.1 10.811c-0.829 0.491-1.377 1.38-1.377 2.398 0 0.525 0.146 1.016 0.399 1.435l-0.007-0.012c0.511 0.488 1.205 0.788 1.969 0.788s1.458-0.3 1.97-0.789l-0.001 0.001 7.798-6.282c-0.059 0.405-0.095 0.876-0.098 1.355l-0 0.004zM31.902 23.591c-1.608 1.565-3.808 2.531-6.233 2.531s-4.624-0.965-6.235-2.533l0.002 0.002c-0.768-0.75-1.372-1.664-1.756-2.686l-0.017-0.051c-0.265-0.71-0.418-1.529-0.418-2.385 0-1.242 0.323-2.408 0.889-3.42l-0.018 0.035c0.519-0.886 1.177-1.631 1.952-2.232l0.018-0.013c1.519-1.21 3.465-1.941 5.583-1.941s4.064 0.731 5.601 1.955l-0.018-0.014c0.793 0.614 1.45 1.359 1.95 2.209l0.020 0.036c0.457 0.807 0.76 1.758 0.845 2.771l0.002 0.025c0.016 0.177 0.025 0.382 0.025 0.59 0 0.855-0.154 1.674-0.435 2.432l0.016-0.048c-0.406 1.071-1.009 1.984-1.772 2.736l-0.001 0.001z"></path>
</symbol>
<symbol id="contact-me-icon" viewBox="0 0 46 32">
<path d="M12.686 1.143h30.88c1.202 0.074 2.149 1.067 2.149 2.282 0 0.001 0 0.003 0 0.004v-0 23.337c-0.001 0.459-0.137 0.886-0.371 1.243l0.005-0.009c-0.049 0.124-0.119 0.231-0.206 0.32l0-0-0.206 0.137c-0.368 0.311-0.847 0.5-1.371 0.503h-18.286c0.094-0.398 0.148-0.855 0.148-1.325 0-0.129-0.004-0.257-0.012-0.384l0.001 0.017h17.577l-11.429-12.32-3.817 3.337c-0.138 0.127-0.323 0.205-0.526 0.205s-0.388-0.078-0.526-0.205l0.001 0-3.977-3.337-3.589 3.68c-0.471-0.318-1.021-0.562-1.612-0.702l-0.034-0.007 3.954-4.046-7.337-6.126c-0.026-0.474-0.116-0.919-0.262-1.337l0.010 0.034-0.297-1.349 13.714 11.429 15.68-13.714h-29.714zM6.491 11.817c0.384 2.132 0.995 4.034 1.821 5.815l-0.061-0.146c1.022 2.144 2.324 3.98 3.887 5.556l-0.001-0.001c0.096 0.1 0.231 0.163 0.38 0.163 0.019 0 0.038-0.001 0.056-0.003l-0.002 0c0.281-0.059 0.527-0.179 0.735-0.346l-0.003 0.003c0.295-0.16 0.55-0.334 0.784-0.531l-0.007 0.006c1.166-0.823 2.606-1.851 3.84-0.686v0l3.886 4.389c0.297 0.382 0.477 0.869 0.477 1.397 0 0.321-0.066 0.626-0.185 0.903l0.006-0.015c-0.297 0.907-0.801 1.677-1.459 2.282l-0.004 0.003c-0.75 0.727-1.723 1.228-2.806 1.391l-0.028 0.004c-0.297 0.029-0.643 0.046-0.992 0.046-0.741 0-1.464-0.075-2.163-0.218l0.069 0.012c-1.607-0.269-3.030-0.906-4.229-1.822l0.023 0.017c-1.381-1.067-2.584-2.262-3.624-3.59l-0.033-0.044c-0.549-0.686-1.166-1.44-1.737-2.286-2.122-3.139-3.71-6.827-4.537-10.794l-0.035-0.2c-0.299-1.114-0.47-2.393-0.47-3.712 0-2.076 0.425-4.053 1.193-5.848l-0.037 0.097c0.674-1.487 1.845-2.65 3.296-3.298l0.041-0.017c0.594-0.23 1.281-0.363 2-0.363 0.938 0 1.823 0.227 2.604 0.629l-0.032-0.015c0.194 0.086 0.334 0.264 0.365 0.477l0 0.003 1.394 6.309c0.061 0.173 0.096 0.373 0.096 0.58 0 0.452-0.166 0.865-0.441 1.182l0.002-0.002c-0.429 0.442-0.969 0.774-1.574 0.953l-0.026 0.007-0.709 0.251c-0.846 0.274-1.806 0.617-1.76 1.394v0zM32.8 13.829l11.246 12.091v-21.897l-11.246 9.829z"></path>
</symbol>
<symbol id="css-logo-icon" viewBox="0 0 29 32">
<path fill="#2062af" style="fill: var(--color1, #2062af)" d="M3.738 28.058l-2.56-26.982h26.72l-2.575 26.938-10.793 2.865-10.793-2.822z"></path>
<path fill="#2062af" style="fill: var(--color1, #2062af)" d="M26.72 2.153l-2.4 25.018-9.775 2.604-9.804-2.56-2.371-25.062h24.349zM29.091 0h-29.091l2.735 28.916 11.811 3.084 11.796-3.127z"></path>
<path fill="#3c9cd7" style="fill: var(--color2, #3c9cd7)" d="M14.575 2.138l12.116 0.015-2.4 25.047-9.76 2.589 0.044-27.651z"></path>
<path fill="#d9dadb" style="fill: var(--color3, #d9dadb)" d="M14.56 13.018h-8.48l8.495-3.651h8.756l-8.771 3.651z"></path>
<path fill="#fff" style="fill: var(--color4, #fff)" d="M23.331 9.367h-8.756l-0.029-3.491h9.091l-0.305 3.491z"></path>
<path fill="#f2f2f2" style="fill: var(--color5, #f2f2f2)" d="M5.353 5.862l0.465 3.505h8.756l0.029-3.491z"></path>
<path fill="#f2f2f2" style="fill: var(--color5, #f2f2f2)" d="M6.356 16.407h8.204v-3.389h-8.48l0.276 3.389z"></path>
<path fill="#f2f2f2" style="fill: var(--color5, #f2f2f2)" d="M14.545 22.095l-3.942-0.945-0.247-2.909h-3.724l0.48 5.469 7.433 2.24v-3.855z"></path>
<path fill="#fff" style="fill: var(--color4, #fff)" d="M14.545 13.091v3.389h4.364l-0.291 4.553-4.073 1.062v3.855l7.418-2.124 0.975-10.735z"></path>
</symbol>
<symbol id="email-symbol-icon" viewBox="0 0 32 32">
<path d="M27.776 8l-6.608-6.512h-17.792v10.56l9.296 8 3.2 2.688 12.656-10.592v-2.672l-0.736-1.472zM17.392 7.376v-0.080l0.16-0.64h1.856l-1.072 4.8v0.224c-0.007 0.058-0.012 0.124-0.012 0.192s0.004 0.134 0.012 0.2l-0.001-0.008c-0 0.006-0.001 0.014-0.001 0.022 0 0.084 0.031 0.16 0.081 0.219l-0-0c0.029 0.011 0.061 0.018 0.096 0.018s0.067-0.006 0.098-0.018l-0.002 0.001c0.381-0.055 0.715-0.222 0.977-0.465l-0.001 0.001c0.428-0.362 0.782-0.797 1.044-1.288l0.012-0.024c0.28-0.518 0.444-1.135 0.444-1.789 0-0.551-0.116-1.074-0.326-1.547l0.010 0.024c-0.229-0.486-0.541-0.896-0.924-1.228l-0.004-0.004c-0.419-0.353-0.915-0.632-1.457-0.807l-0.031-0.009c-0.571-0.193-1.23-0.305-1.914-0.305-0.036 0-0.072 0-0.108 0.001l0.005-0c-0.006-0-0.014-0-0.021-0-0.739 0-1.453 0.105-2.128 0.301l0.054-0.013c-0.611 0.202-1.142 0.485-1.614 0.842l0.014-0.010c-0.479 0.365-0.878 0.806-1.188 1.307l-0.012 0.021c-0.283 0.46-0.509 0.994-0.648 1.562l-0.008 0.038c-0.191 0.506-0.327 1.092-0.382 1.702l-0.002 0.026c-0.001 0.039-0.002 0.085-0.002 0.131 0 0.74 0.178 1.438 0.494 2.054l-0.012-0.025c0.334 0.651 0.805 1.189 1.378 1.591l0.014 0.009c0.627 0.441 1.369 0.765 2.172 0.922l0.036 0.006c0.557 0.109 1.197 0.171 1.852 0.171 0.385 0 0.764-0.021 1.138-0.063l-0.046 0.004c0.809-0.080 1.552-0.278 2.24-0.578l-0.048 0.018c0.634-0.275 1.168-0.671 1.595-1.163l0.005-0.005h1.488c-0.255 0.499-0.571 0.927-0.944 1.296l-0 0c-0.397 0.372-0.85 0.692-1.343 0.944l-0.033 0.015c-0.506 0.245-1.095 0.444-1.712 0.568l-0.048 0.008c-0.63 0.132-1.354 0.208-2.095 0.208-0.011 0-0.023-0-0.034-0h0.002c-0.052 0.001-0.113 0.002-0.175 0.002-1.045 0-2.053-0.158-3.001-0.453l0.072 0.019c-0.901-0.271-1.682-0.705-2.345-1.271l0.009 0.007c-0.631-0.525-1.127-1.191-1.444-1.951l-0.012-0.033c-0.304-0.704-0.481-1.523-0.481-2.383 0-0.040 0-0.079 0.001-0.119l-0 0.006c-0.002-0.055-0.002-0.12-0.002-0.185 0-0.907 0.177-1.773 0.499-2.564l-0.016 0.046c0.67-1.678 1.996-2.973 3.653-3.586l0.043-0.014c0.866-0.335 1.868-0.528 2.915-0.528 0.027 0 0.054 0 0.081 0l-0.004-0c0.875 0 1.717 0.141 2.505 0.4l-0.057-0.016c0.733 0.236 1.364 0.609 1.892 1.091l-0.004-0.003c0.512 0.432 0.923 0.966 1.204 1.572l0.012 0.028c0.264 0.593 0.417 1.286 0.417 2.014 0 0.034-0 0.069-0.001 0.103l0-0.005c-0.001 0.634-0.124 1.239-0.348 1.792l0.012-0.032c-0.233 0.617-0.559 1.148-0.965 1.605l0.005-0.005c-0.411 0.451-0.905 0.817-1.46 1.076l-0.028 0.012c-0.54 0.272-1.176 0.432-1.85 0.432-0.008 0-0.016-0-0.023-0h0.001c-0.027 0.002-0.059 0.002-0.091 0.002-0.288 0-0.56-0.072-0.798-0.199l0.009 0.004c-0.213-0.128-0.366-0.339-0.415-0.586l-0.001-0.006-0.304 0.256-0.288 0.176c-0.226 0.128-0.489 0.228-0.766 0.285l-0.018 0.003c-0.168 0.036-0.361 0.056-0.56 0.056-0.375 0-0.732-0.074-1.059-0.207l0.019 0.007c-0.5-0.208-0.909-0.55-1.194-0.982l-0.006-0.010c-0.283-0.441-0.451-0.979-0.451-1.557 0-0.049 0.001-0.097 0.004-0.146l-0 0.007c0.001-0.761 0.172-1.481 0.477-2.127l-0.013 0.030c0.324-0.649 0.785-1.187 1.347-1.591l0.013-0.009c0.532-0.41 1.208-0.656 1.942-0.656 0.015 0 0.030 0 0.045 0l-0.002-0c0.040-0.003 0.087-0.004 0.134-0.004 0.689 0 1.299 0.34 1.67 0.862l0.004 0.006zM13.552 10.896c-0.003 0.038-0.004 0.083-0.004 0.128 0 0.415 0.134 0.798 0.36 1.109l-0.004-0.005c0.197 0.264 0.509 0.433 0.861 0.433 0.018 0 0.036-0 0.054-0.001l-0.002 0c0.003 0 0.007 0 0.011 0 0.463 0 0.88-0.197 1.172-0.511l0.001-0.001c0.097-0.097 0.186-0.201 0.267-0.312l0.005-0.008 0.16-0.24c0.13-0.207 0.239-0.446 0.315-0.699l0.005-0.021c0.169-0.437 0.268-0.942 0.272-1.47v-0.002c0.004-0.046 0.006-0.098 0.006-0.152s-0.002-0.106-0.007-0.159l0 0.007c0.007-0.050 0.011-0.109 0.011-0.168s-0.004-0.118-0.012-0.175l0.001 0.007c-0.063-0.196-0.156-0.367-0.274-0.515l0.002 0.003c-0.115-0.13-0.253-0.238-0.408-0.316l-0.008-0.004c-0.161-0.068-0.347-0.108-0.543-0.112l-0.001-0c-0.431 0.006-0.82 0.182-1.104 0.464l0-0c-0.338 0.318-0.596 0.716-0.746 1.164l-0.006 0.020c-0.173 0.443-0.273 0.956-0.273 1.492 0 0.038 0.001 0.076 0.002 0.114l-0-0.006zM29.984 10.896c0.16-0.149 0.375-0.241 0.611-0.241 0.016 0 0.031 0 0.047 0.001l-0.002-0c0.205 0 0.398 0.054 0.566 0.147l-0.006-0.003c0.129 0.081 0.24 0.176 0.334 0.286l0.002 0.002c0.273 0.289 0.446 0.675 0.464 1.101l0 0.003v18.4c-0.001 0.409-0.173 0.778-0.447 1.039l-0.001 0.001c-0.276 0.232-0.635 0.373-1.027 0.373-0.044 0-0.088-0.002-0.131-0.005l0.006 0h-28.8c-0.421-0.002-0.804-0.166-1.089-0.433l0.001 0.001c-0.299-0.253-0.493-0.622-0.512-1.037l-0-0.003v-18.4c0.023-0.434 0.195-0.823 0.465-1.122l-0.001 0.002c0.103-0.101 0.219-0.191 0.344-0.267l0.008-0.005c0.154-0.091 0.339-0.144 0.537-0.144 0.003 0 0.005 0 0.008 0h-0c0.2 0 0.388 0.054 0.549 0.147l-0.005-0.003v-10.016c0-0.398 0.322-0.72 0.72-0.72h18.8c0.001 0 0.001 0 0.002 0 0.223 0 0.422 0.099 0.557 0.255l0.001 0.001 7.776 7.744c0.138 0.121 0.224 0.297 0.224 0.494 0 0.001 0 0.002 0 0.002v-0 2.336zM15.344 24.16l-3.2-2.704-10.656 8.944v0.112h29.008v-0.112l-10.832-9.104-3.344 2.864c-0.13 0.112-0.301 0.18-0.488 0.18s-0.358-0.068-0.489-0.181l0.001 0.001zM11.072 20.512l-9.6-8.24v16.272l9.6-8zM30.512 28.592v-16.32l-9.712 8.144 9.712 8.16z"></path>
</symbol>
<symbol id="figma-logo-icon" viewBox="0 0 21 32">
<path fill="#0acf83" style="fill: var(--color13, #0acf83)" d="M5.333 32c2.946 0 5.333-2.388 5.333-5.333v0-5.333h-5.333c-2.946 0-5.333 2.388-5.333 5.333s2.388 5.333 5.333 5.333v0z"></path>
<path fill="#a259ff" style="fill: var(--color14, #a259ff)" d="M0 16c0-2.946 2.388-5.333 5.333-5.333v0h5.333v10.667h-5.333c-2.946 0-5.333-2.388-5.333-5.333v0z"></path>
<path fill="#f24e1e" style="fill: var(--color15, #f24e1e)" d="M0 5.333c0-2.946 2.388-5.333 5.333-5.333v0h5.333v10.667h-5.333c-2.946 0-5.333-2.388-5.333-5.333v0z"></path>
<path fill="#ff7262" style="fill: var(--color16, #ff7262)" d="M10.667 0h5.333c2.946 0 5.333 2.388 5.333 5.333s-2.388 5.333-5.333 5.333v0h-5.333v-10.667z"></path>
<path fill="#1abcfe" style="fill: var(--color17, #1abcfe)" d="M21.333 16c0 2.946-2.388 5.333-5.333 5.333s-5.333-2.388-5.333-5.333c0-2.946 2.388-5.333 5.333-5.333v0c2.946 0 5.333 2.388 5.333 5.333v0z"></path>
</symbol>
<symbol id="github-icon" viewBox="0 0 32 32">
<path d="M16 0c-8.862 0.117-16.001 7.328-16.001 16.207 0 0.074 0.001 0.147 0.001 0.22l-0-0.011c-0.001 0.049-0.001 0.106-0.001 0.163 0 7.090 4.517 13.126 10.831 15.385l0.114 0.036c0.8 0.16 1.088-0.352 1.088-0.784s0-1.6 0-3.056c-4.448 0.992-5.392-1.936-5.392-1.936-0.317-1.025-0.967-1.868-1.823-2.422l-0.017-0.010c-1.456-1.024 0.112-0.992 0.112-0.992 1.076 0.142 1.978 0.776 2.487 1.664l0.009 0.016c0.571 1.090 1.693 1.82 2.986 1.82 0.614 0 1.19-0.165 1.686-0.453l-0.016 0.009c0.073-0.868 0.45-1.636 1.024-2.208l0-0c-3.488-0.4-7.296-1.808-7.296-8.096-0-0.019-0-0.042-0-0.065 0-1.652 0.626-3.158 1.653-4.293l-0.005 0.005c-0.209-0.587-0.329-1.264-0.329-1.969 0-0.861 0.18-1.681 0.505-2.422l-0.015 0.039s1.344-0.448 4.4 1.632c1.199-0.345 2.576-0.544 4-0.544s2.801 0.199 4.106 0.57l-0.106-0.026c3.056-2.112 4.4-1.6 4.4-1.6 0.301 0.701 0.477 1.516 0.477 2.373 0 0.697-0.116 1.366-0.33 1.99l0.013-0.043c0.995 1.123 1.602 2.608 1.602 4.236 0 0.058-0.001 0.115-0.002 0.173l0-0.008c0 6.304-3.744 7.68-7.312 8.096 0.68 0.704 1.1 1.664 1.1 2.722 0 0.106-0.004 0.211-0.012 0.315l0.001-0.014c0 2.192 0 3.968 0 4.512s0.288 0.944 1.104 0.784c6.438-2.306 10.961-8.355 10.961-15.46 0-0.055-0-0.109-0.001-0.164l0 0.008c0.001-0.057 0.001-0.125 0.001-0.193 0-8.879-7.139-16.090-15.99-16.207l-0.011-0z"></path>
</symbol>
<symbol id="git-logo-icon" viewBox="0 0 32 32">
<path fill="#f05133" style="fill: var(--color18, #f05133)" d="M31.392 14.576l-13.968-13.968c-0.373-0.371-0.888-0.601-1.456-0.601s-1.083 0.23-1.456 0.601l-2.896 2.896 3.68 3.68c0.24-0.087 0.518-0.137 0.807-0.137 1.352 0 2.448 1.096 2.448 2.448 0 0.32-0.061 0.625-0.173 0.905l0.006-0.017 3.552 3.552c0.239-0.085 0.514-0.135 0.801-0.135 1.352 0 2.448 1.096 2.448 2.448 0 0.678-0.275 1.291-0.721 1.735l-0 0c-0.445 0.453-1.063 0.733-1.747 0.733-1.352 0-2.448-1.096-2.448-2.448 0-0.346 0.072-0.675 0.201-0.973l-0.006 0.016-3.312-3.376v8.704c0.254 0.122 0.47 0.277 0.656 0.464l0 0c0.446 0.444 0.722 1.058 0.722 1.736s-0.276 1.293-0.722 1.736l-0 0c-0.447 0.438-1.060 0.709-1.736 0.709s-1.289-0.271-1.736-0.709l0 0c-0.446-0.444-0.722-1.058-0.722-1.736s0.276-1.293 0.722-1.736l0-0c0.225-0.223 0.49-0.407 0.783-0.537l0.017-0.007v-8.784c-0.29-0.146-0.534-0.339-0.733-0.573l-0.003-0.003c-0.442-0.448-0.715-1.063-0.715-1.742 0-0.341 0.069-0.666 0.193-0.962l-0.006 0.016-3.696-3.584-9.6 9.6c-0.379 0.37-0.615 0.885-0.615 1.456s0.235 1.086 0.614 1.456l0 0 13.968 13.984c0.373 0.371 0.888 0.601 1.456 0.601s1.083-0.23 1.456-0.601l13.904-13.904c0.376-0.374 0.609-0.892 0.609-1.464s-0.233-1.090-0.609-1.464l-0-0z"></path>
</symbol>
<symbol id="html-logo-icon" viewBox="0 0 28 32">
<path fill="#e44d26" style="fill: var(--color19, #e44d26)" d="M28.194 0l-2.537 28.758-11.559 3.242-11.559-3.242-2.537-28.758h28.194z"></path>
<path fill="#f16529" style="fill: var(--color20, #f16529)" d="M14.097 29.463l9.304-2.537 2.256-24.529h-11.559v27.066z"></path>
<path fill="#ebebeb" style="fill: var(--color21, #ebebeb)" d="M9.163 9.445h4.934v-3.524h-8.881l0.141 0.987 0.846 9.727h7.894v-3.665h-4.652l-0.282-3.524zM9.868 18.326h-3.524l0.564 5.498 7.189 1.974v-3.665l-3.947-0.987-0.282-2.819z"></path>
<path fill="#fff" style="fill: var(--color7, #fff)" d="M14.097 16.493h4.37l-0.423 4.652-3.947 0.987v3.665l7.189-1.974v-0.564l0.846-9.304 0.141-0.987h-8.176v3.524zM14.097 9.445h8.458v-0.846l0.141-1.833 0.141-0.987h-8.74v3.665z"></path>
</symbol>
<symbol id="js-logo-icon" viewBox="0 0 32 32">
<path fill="#f7df1e" style="fill: var(--color22, #f7df1e)" d="M0 0h32v32h-32v-32z"></path>
<path fill="#000" style="fill: var(--color12, #000)" d="M8.416 26.736l2.448-1.472c0.464 0.832 0.896 1.6 1.936 1.6s1.6-0.384 1.6-1.888v-10.288h3.008v10.272c0.017 0.141 0.027 0.305 0.027 0.47 0 2.253-1.827 4.080-4.080 4.080-0.15 0-0.299-0.008-0.445-0.024l0.018 0.002c-0.078 0.005-0.168 0.007-0.26 0.007-1.885 0-3.508-1.12-4.24-2.73l-0.012-0.029zM19.040 26.416l2.448-1.408c0.557 1.090 1.672 1.824 2.959 1.824 0.006 0 0.012-0 0.018-0h-0.001c1.232 0 2.032-0.624 2.032-1.488s-0.816-1.392-2.192-2l-0.752-0.32c-2.16-0.928-3.6-2.080-3.6-4.528 0.017-2.205 1.808-3.986 4.016-3.986 0.135 0 0.269 0.007 0.401 0.020l-0.017-0.001c0.098-0.008 0.212-0.012 0.327-0.012 1.71 0 3.194 0.969 3.933 2.388l0.012 0.025-2.336 1.504c-0.308-0.766-1.045-1.296-1.905-1.296-0.011 0-0.022 0-0.033 0l0.002-0c-0.038-0.004-0.083-0.006-0.128-0.006-0.721 0-1.306 0.582-1.312 1.302v0.001c0 0.896 0.56 1.264 1.84 1.824l0.752 0.32c2.56 1.104 4 2.208 4 4.8s-2.128 4.176-4.976 4.176c-0.113 0.008-0.245 0.012-0.378 0.012-2.206 0-4.122-1.236-5.095-3.053l-0.015-0.031z"></path>
</symbol>
<symbol id="linkedin-icon" viewBox="0 0 32 32">
<path fill="#0a66c2" style="fill: var(--color23, #0a66c2)" d="M7.232 0h17.6c3.967 0.063 7.159 3.289 7.168 7.263v17.473c-0.009 3.997-3.238 7.237-7.229 7.264h-17.603c-3.967-0.063-7.159-3.289-7.168-7.263v-17.473c0.009-3.997 3.238-7.237 7.229-7.264h0.003z"></path>
<path fill="#fff" style="fill: var(--color7, #fff)" d="M12.8 12.4h4.032v2.096c0.802-1.27 2.197-2.101 3.787-2.101 0.075 0 0.149 0.002 0.223 0.005l-0.010-0c4.256 0 5.056 2.672 5.056 6.144v7.328h-4.144v-6.512c0-1.504 0-3.424-2.192-3.424s-2.528 1.664-2.528 3.264v6.64h-4.224zM10.416 8.304c0 1.211-0.981 2.192-2.192 2.192s-2.192-0.981-2.192-2.192c0-1.211 0.981-2.192 2.192-2.192v0c1.211 0 2.192 0.981 2.192 2.192v0zM6.032 12.4h4.384v13.472h-4.384z"></path>
</symbol>
<symbol id="maps-pin-line-icon" viewBox="0 0 25 32">
<path d="M12.665 30.437c1.717-1.070 3.2-2.291 4.506-3.681l0.011-0.012c2.684-2.823 4.636-6.368 5.535-10.313l0.028-0.149c0.269-1.004 0.423-2.158 0.423-3.347 0-2.415-0.636-4.681-1.75-6.64l0.035 0.066c-0.497-0.839-1.081-1.56-1.754-2.185l-0.006-0.006c-1.785-1.657-4.171-2.688-6.797-2.732l-0.009-0c-2.79 0.028-5.342 1.022-7.344 2.663l0.021-0.017c-0.923 0.713-1.702 1.556-2.327 2.509l-0.024 0.039c-1.114 1.779-1.774 3.94-1.774 6.256 0 0.835 0.086 1.65 0.249 2.437l-0.013-0.077c0.712 3.682 2.316 6.908 4.578 9.555l-0.024-0.028c1.833 2.222 3.96 4.114 6.341 5.646l0.108 0.065zM12.308 5.514c0.010-0 0.022-0 0.034-0 1.86 0 3.546 0.742 4.78 1.946l-0.001-0.001c1.238 1.189 2.008 2.859 2.008 4.708s-0.769 3.519-2.006 4.706l-0.002 0.002c-1.247 1.203-2.946 1.945-4.818 1.945s-3.572-0.741-4.821-1.947l0.002 0.002c-1.229-1.194-1.992-2.862-1.992-4.708s0.763-3.514 1.99-4.706l0.002-0.002c1.239-1.203 2.932-1.945 4.798-1.945 0.009 0 0.018 0 0.028 0h-0.001zM16.148 8.418c-0.993-0.96-2.347-1.552-3.84-1.552s-2.847 0.592-3.842 1.554l0.002-0.001c-0.962 0.94-1.566 2.244-1.588 3.688l-0 0.004c0.015 1.45 0.62 2.756 1.586 3.691l0.001 0.001c0.993 0.96 2.347 1.552 3.84 1.552s2.847-0.592 3.842-1.554l-0.002 0.001c0.961-0.941 1.564-2.244 1.588-3.688l0-0.004c-0.013-1.45-0.619-2.757-1.586-3.691l-0.002-0.001zM18.277 27.68c-1.499 1.601-3.202 2.984-5.076 4.113l-0.106 0.059c-0.118 0.078-0.263 0.125-0.418 0.125s-0.301-0.047-0.421-0.127l0.003 0.002c-2.787-1.737-5.164-3.82-7.161-6.229l-0.039-0.048c-2.374-2.799-4.076-6.24-4.814-10.026l-0.023-0.14c-0.159-0.771-0.25-1.658-0.25-2.566 0-2.586 0.739-5 2.018-7.041l-0.032 0.056c0.741-1.13 1.631-2.091 2.656-2.885l0.027-0.020c2.226-1.808 5.085-2.916 8.201-2.954l0.008-0c3.013 0.044 5.744 1.215 7.799 3.109l-0.008-0.007c0.798 0.711 1.486 1.521 2.053 2.415l0.027 0.046c1.216 2.109 1.933 4.638 1.933 7.334 0 1.281-0.162 2.524-0.466 3.71l0.022-0.103c-1.002 4.358-3.076 8.133-5.931 11.163l0.011-0.012z"></path>
</symbol>
<symbol id="materialui-logo-icon" viewBox="0 0 40 32">
<path fill="#00b0ff" style="fill: var(--color24, #00b0ff)" d="M0 17.451v-17.451l15.113 8.725v5.824l-10.076-5.824v11.647z"></path>
<path fill="#0081cb" style="fill: var(--color25, #0081cb)" d="M15.113 8.725l15.113-8.725v17.451l-10.076 5.824-5.038-2.902 10.076-5.824v-5.824l-10.076 5.824z"></path>
<path fill="#00b0ff" style="fill: var(--color24, #00b0ff)" d="M15.113 20.373v5.824l10.076 5.824v-5.824z"></path>
<path fill="#0081cb" style="fill: var(--color25, #0081cb)" d="M25.189 32l15.113-8.725v-11.627l-5.038 2.902v5.824l-10.076 5.824zM35.264 8.725v-5.804l5.038-2.922v5.824z"></path>
</symbol>
<symbol id="mongodb-logo-icon" viewBox="0 0 14 32">
<path fill="#599636" style="fill: var(--color26, #599636)" d="M7.086 0.093l0.855 1.603c0.192 0.301 0.403 0.562 0.639 0.798l0 0c0.705 0.696 1.361 1.437 1.967 2.22l0.038 0.051c1.348 1.791 2.415 3.885 3.084 6.149l0.035 0.139c0.406 1.273 0.649 2.739 0.668 4.259l0 0.010c0.005 0.143 0.008 0.312 0.008 0.481 0 4.154-1.684 7.914-4.406 10.636v0c-0.475 0.48-0.986 0.92-1.531 1.319l-0.036 0.025c-0.295 0-0.438-0.223-0.561-0.431-0.209-0.363-0.36-0.787-0.429-1.237l-0.003-0.020c-0.095-0.397-0.15-0.852-0.15-1.32 0-0.094 0.002-0.188 0.007-0.281l-0 0.013v-0.244c0-0.050-0.287-24.045-0.18-24.167z"></path>
<path fill="#6cac48" style="fill: var(--color27, #6cac48)" d="M7.086 0.007c0-0.065-0.072 0-0.108 0 0.002 0.028 0.003 0.060 0.003 0.092 0 0.343-0.112 0.661-0.3 0.918l0.003-0.004c-0.228 0.288-0.481 0.541-0.759 0.762l-0.010 0.007c-1.51 1.334-2.765 2.913-3.714 4.682l-0.044 0.090c-1.21 2.27-1.988 4.94-2.153 7.774l-0.002 0.052c0.014 1.958 0.243 3.855 0.666 5.679l-0.034-0.174c0.923 2.714 2.434 5.021 4.389 6.862l0.008 0.008c0.474 0.449 0.98 0.882 1.507 1.288l0.046 0.034c0.158 0 0.172-0.137 0.208-0.244 0.063-0.189 0.118-0.417 0.155-0.651l0.003-0.025 0.352-2.616-0.216-24.534z"></path>
<path fill="#c2bfbf" style="fill: var(--color28, #c2bfbf)" d="M7.941 28.845c0.059-0.404 0.212-0.765 0.436-1.070l-0.005 0.007c-0.203-0.103-0.364-0.264-0.464-0.461l-0.003-0.006c-0.098-0.164-0.188-0.354-0.259-0.552l-0.007-0.023c-0.195-0.663-0.326-1.432-0.366-2.226l-0.001-0.024v-0.453c-0.064 0.195-0.102 0.42-0.102 0.654 0 0.023 0 0.045 0.001 0.068l-0-0.003c-0.058 0.876-0.17 1.683-0.336 2.47l0.020-0.113c-0.026 0.343-0.132 0.657-0.3 0.929l0.005-0.009c-0.003 0.018-0.005 0.040-0.005 0.061s0.002 0.043 0.005 0.063l-0-0.002c0.268 0.84 0.434 1.808 0.46 2.811l0 0.013v0.352c0 0.417 0 0.323 0.323 0.467 0.166 0.037 0.312 0.097 0.445 0.176l-0.007-0.004c0.108 0 0.122-0.086 0.122-0.158v-2.149c-0-0.022-0.001-0.048-0.001-0.074 0-0.264 0.026-0.521 0.077-0.77l-0.004 0.025z"></path>
</symbol>
<symbol id="mysql-logo-icon" viewBox="0 0 47 32">
<path fill="#00758f" style="fill: var(--color29, #00758f)" d="M11.301 29.157h-1.903c0-3.054-0.235-5.944-0.54-8.67v0l-2.678 8.67h-1.48l-2.655-8.67c-0.188 2.608-0.329 5.498-0.376 8.67h-1.668c0.117-3.877 0.376-7.495 0.799-10.878h2.349l2.631 7.988 2.631-7.988h2.138c0.47 3.971 0.752 7.589 0.822 10.878z"></path>
<path fill="#00758f" style="fill: var(--color29, #00758f)" d="M19.172 21.145c-0.452 3.269-1.487 6.219-3 8.859l0.063-0.119c-0.599 1.169-1.742 1.984-3.086 2.113l-0.016 0.001c-0.406-0.027-0.782-0.128-1.123-0.29l0.019 0.008v-0.963c0.116 0.011 0.251 0.017 0.388 0.017s0.271-0.006 0.405-0.019l-0.017 0.001c0.057 0.007 0.124 0.010 0.191 0.010 0.418 0 0.802-0.146 1.104-0.389l-0.003 0.003c0.343-0.289 0.561-0.718 0.564-1.198v-0c-0.117-0.696-0.313-1.319-0.583-1.902l0.019 0.046-1.88-6.179h1.88l1.433 4.699c0.253 0.624 0.4 1.347 0.4 2.105 0 0.037-0 0.073-0.001 0.109l0-0.005c0.729-2.011 1.268-4.353 1.517-6.78l0.011-0.127z"></path>
<path fill="#f29111" style="fill: var(--color30, #f29111)" d="M27.113 26.15c0.003 0.048 0.005 0.105 0.005 0.161 0 0.875-0.392 1.659-1.011 2.185l-0.004 0.003c-0.679 0.559-1.558 0.898-2.515 0.898-0.074 0-0.147-0.002-0.22-0.006l0.010 0c-1.177-0.074-2.24-0.514-3.088-1.206l0.010 0.008 0.47-0.916c0.679 0.375 1.484 0.606 2.341 0.634l0.008 0c0.038 0.002 0.082 0.003 0.127 0.003 0.522 0 1.007-0.159 1.409-0.432l-0.009 0.006c0.359-0.282 0.587-0.716 0.587-1.204 0-0.006-0-0.013-0-0.019v0.001c0-0.634-0.446-1.175-1.269-1.645l-2.349-1.292c-0.754-0.466-1.248-1.288-1.248-2.225 0-0.044 0.001-0.087 0.003-0.13l-0 0.006c-0-0.017-0.001-0.037-0.001-0.057 0-0.827 0.363-1.57 0.937-2.078l0.003-0.003c0.583-0.499 1.346-0.803 2.18-0.803 0.060 0 0.119 0.002 0.178 0.005l-0.008-0c0.037-0.001 0.081-0.002 0.125-0.002 0.979 0 1.887 0.299 2.64 0.811l-0.016-0.011-0.399 0.893c-0.608-0.274-1.318-0.438-2.064-0.446l-0.003-0c-0.045-0.004-0.096-0.006-0.149-0.006-0.431 0-0.829 0.143-1.148 0.385l0.005-0.003c-0.298 0.248-0.488 0.618-0.493 1.033v0.001c0 0.658 0.47 1.222 1.316 1.692l2.349 1.292c0.766 0.458 1.272 1.283 1.272 2.226 0 0.043-0.001 0.086-0.003 0.129l0-0.006z"></path>
<path fill="#f29111" style="fill: var(--color30, #f29111)" d="M30.355 26.972c-0.43-0.851-0.682-1.854-0.682-2.916 0-0.197 0.009-0.393 0.026-0.586l-0.002 0.025c0-2.725 0.822-4.112 2.349-4.088 0.056-0.005 0.121-0.009 0.186-0.009 0.732 0 1.374 0.385 1.735 0.963l0.005 0.009c0.426 0.846 0.676 1.843 0.676 2.899 0 0.171-0.007 0.339-0.019 0.507l0.001-0.022c0 2.749-0.822 4.135-2.49 4.135-0.041 0.003-0.089 0.005-0.138 0.005-0.744 0-1.396-0.393-1.76-0.982l-0.005-0.009zM36.793 29.322l-1.997-0.987c0.19-0.141 0.352-0.304 0.489-0.487l0.004-0.006c0.801-1.085 1.282-2.449 1.282-3.925 0-0.148-0.005-0.296-0.014-0.441l0.001 0.020c0-3.595-1.386-5.38-4.206-5.38-0.072-0.005-0.155-0.007-0.24-0.007-1.189 0-2.255 0.529-2.975 1.365l-0.004 0.005c-0.803 1.091-1.285 2.462-1.285 3.945 0 0.166 0.006 0.331 0.018 0.494l-0.001-0.022c-0.020 0.189-0.031 0.408-0.031 0.63 0 1.374 0.434 2.648 1.172 3.69l-0.013-0.020c0.697 0.745 1.686 1.21 2.783 1.21 0.104 0 0.207-0.004 0.308-0.012l-0.013 0.001c0.025 0 0.055 0.001 0.085 0.001 0.48 0 0.944-0.069 1.383-0.197l-0.035 0.009 2.584 1.504 0.705-1.198z"></path>
<path fill="#f29111" style="fill: var(--color30, #f29111)" d="M43.301 29.157h-5.169v-10.878h1.739v9.539h3.43v1.339z"></path>
<path fill="#f29111" style="fill: var(--color30, #f29111)" d="M44.64 29.157h0.305v-1.104h0.376v-0.235h-1.057v0.235h0.376v1.104zM46.825 29.157h0.164v-1.339h-0.399l-0.352 0.916-0.352-0.916h-0.376v1.339h0.258v-0.963l0.376 1.010h0.188l0.399-1.010v1.010z"></path>
<path fill="#00758f" style="fill: var(--color29, #00758f)" d="M45.463 14.661c-0.126-0.010-0.273-0.015-0.422-0.015-0.761 0-1.488 0.143-2.156 0.405l0.040-0.014c-0.188 0-0.493 0-0.517 0.329s0 0.282 0.188 0.423c0.195 0.305 0.42 0.568 0.677 0.795l0.004 0.003 0.846 0.611c0.517 0.305 1.081 0.493 1.574 0.799s0.587 0.423 0.869 0.611 0.235 0.282 0.423 0.352v0c0-0.117-0.117-0.282-0.211-0.423l-0.376-0.376c-0.386-0.51-0.836-0.945-1.344-1.303l-0.019-0.013c-0.423-0.305-1.339-0.705-1.504-1.151v0c0.344-0.055 0.645-0.129 0.936-0.224l-0.044 0.012c0.446 0 0.846 0 1.316-0.211l0.611-0.188c-0.235-0.235-0.399-0.564-0.634-0.775-0.641-0.556-1.346-1.083-2.090-1.555l-0.072-0.043c-0.423-0.258-0.94-0.446-1.363-0.658s-0.423 0-0.517-0.258c-0.202-0.291-0.384-0.624-0.528-0.976l-0.013-0.035c-0.376-0.728-0.752-1.527-1.057-2.35s-0.423-1.010-0.681-1.527c-1.215-2.137-2.948-3.854-5.032-5.017l-0.066-0.034c-0.482-0.23-1.042-0.41-1.629-0.511l-0.039-0.006c-0.329 0-0.658 0-0.987 0-0.231-0.144-0.43-0.291-0.618-0.452l0.007 0.006c-0.752-0.47-2.655-1.504-3.219-0.141-0.352 0.846 0.54 1.692 0.846 2.115 0.23 0.288 0.448 0.611 0.639 0.951l0.019 0.036c0 0.235 0 0.47 0.211 0.705 0.238 0.725 0.468 1.308 0.728 1.875l-0.046-0.113c0.166 0.318 0.322 0.579 0.49 0.831l-0.020-0.032c0 0.141 0.305 0.211 0.329 0.446-0.128 0.286-0.227 0.618-0.279 0.965l-0.003 0.022c-0.179 0.527-0.283 1.135-0.283 1.767 0 0.97 0.244 1.883 0.673 2.681l-0.015-0.030c0.211 0.329 0.705 1.034 1.363 0.752s0.47-0.987 0.634-1.621c0-0.164 0-0.282 0-0.399v0c0.188 0.399 0.376 0.728 0.54 1.104 0.48 0.687 1.039 1.276 1.674 1.772l0.018 0.013c0.305 0.235 0.564 0.634 0.963 0.775v0c-0.090-0.097-0.19-0.182-0.299-0.255l-0.006-0.004c-0.247-0.24-0.471-0.501-0.67-0.781l-0.012-0.017c-0.523-0.682-1.008-1.452-1.418-2.266l-0.038-0.084c-0.211-0.423-0.399-0.869-0.564-1.269s0-0.376-0.211-0.47c-0.245 0.255-0.463 0.54-0.646 0.848l-0.012 0.022c-0.194 0.587-0.328 1.268-0.375 1.972l-0.001 0.025c-0.423 0-0.564-0.54-0.728-0.916-0.212-0.576-0.335-1.241-0.335-1.934 0-0.558 0.079-1.097 0.227-1.607l-0.010 0.041c0-0.282 0.493-1.151 0.329-1.41s-0.329-0.376-0.47-0.587c-0.177-0.238-0.334-0.508-0.46-0.796l-0.010-0.027c-0.329-0.752-0.493-1.551-0.822-2.349-0.198-0.384-0.417-0.716-0.666-1.021l0.008 0.010c-0.265-0.304-0.506-0.642-0.712-1.003l-0.016-0.031c0-0.141-0.141-0.376 0-0.54 0.031-0.083 0.1-0.145 0.186-0.164l0.002-0c0.164-0.141 0.658 0 0.822 0 0.503 0.192 0.937 0.421 1.337 0.695l-0.022-0.014c0.18 0.178 0.39 0.328 0.62 0.44l0.014 0.006h0.258c0.423 0 0.893 0 1.292 0.141 0.72 0.259 1.34 0.568 1.917 0.939l-0.037-0.022c1.737 1.142 3.12 2.691 4.034 4.515l0.030 0.067c0.164 0.305 0.211 0.564 0.376 0.893s0.611 1.292 0.893 1.903c0.259 0.673 0.576 1.254 0.956 1.786l-0.016-0.024c0.188 0.282 0.963 0.423 1.316 0.564l0.916 0.376 1.316 0.893c0.188 0.164 0.846 0.493 0.893 0.775z"></path>
<path fill="#00758f" style="fill: var(--color29, #00758f)" d="M32.117 3.242c-0.081-0.011-0.175-0.017-0.27-0.017s-0.189 0.006-0.281 0.018l0.011-0.001 0.423 0.54c0 0.211 0.211 0.423 0.305 0.634v0c0.174-0.139 0.285-0.351 0.285-0.589 0-0.024-0.001-0.048-0.003-0.071l0 0.003s0-0.188-0.164-0.282-0.235-0.188-0.352-0.305z"></path>
</symbol>
<symbol id="nextjs-logo-icon" viewBox="0 0 32 32">
<path d="M14.96 0l-0.56 0.048c-4.729 0.492-8.795 2.979-11.391 6.592l-0.033 0.048c-1.433 1.965-2.436 4.334-2.821 6.905l-0.011 0.087c-0.096 0.573-0.151 1.234-0.151 1.907 0 0.145 0.003 0.29 0.008 0.434l-0.001-0.021c-0.004 0.124-0.007 0.269-0.007 0.415 0 0.678 0.055 1.343 0.161 1.991l-0.010-0.071c0.934 6.104 5.188 11.020 10.83 12.895l0.114 0.033c0.957 0.302 2.081 0.533 3.24 0.65l0.072 0.006c0.496 0 2.576 0 3.072 0 2.15-0.173 4.129-0.745 5.916-1.642l-0.092 0.042c0.272-0.144 0.336-0.176 0.288-0.208s-1.2-1.6-2.608-3.488l-2.544-3.504-3.2-4.8c-1.76-2.608-3.2-4.8-3.2-4.8s0 2.096 0 4.672c0.056 0.718 0.087 1.555 0.087 2.4s-0.032 1.682-0.094 2.51l0.007-0.11c-0.056 0.125-0.151 0.225-0.269 0.286l-0.003 0.002c-0.096 0-0.192 0-0.656 0h-0.832c-0.085-0.059-0.155-0.134-0.206-0.221l-0.002-0.003v-12.608l0.096-0.128c0.063-0.076 0.137-0.139 0.22-0.19l0.004-0.002c0.128 0 0.176 0 0.72 0s0.752 0 0.912 0.208 1.728 2.592 3.808 5.744l8.848 13.44 0.128-0.096c1.25-0.84 2.333-1.79 3.28-2.862l0.016-0.018c1.945-2.218 3.289-5.009 3.749-8.089l0.011-0.087c0.097-0.579 0.152-1.246 0.152-1.926 0-0.155-0.003-0.31-0.009-0.464l0.001 0.022c0.005-0.123 0.007-0.268 0.007-0.413 0-0.673-0.055-1.334-0.161-1.977l0.009 0.070c-0.915-6.112-5.177-11.037-10.831-12.896l-0.113-0.032c-0.955-0.318-2.077-0.566-3.234-0.697l-0.078-0.007c-0.304 0-2.368 0-2.624 0zM21.504 9.68c0.146 0.082 0.258 0.21 0.318 0.363l0.002 0.005s0 1.824 0 5.744v5.632l-1.024-1.52-1.008-1.6v-3.984c0-2.64 0-4.128 0-4.208 0.057-0.166 0.17-0.3 0.317-0.382l0.003-0.002c0.128 0 0.176-0.080 0.656-0.080 0.099-0.022 0.212-0.034 0.328-0.034s0.229 0.012 0.339 0.036l-0.011-0.002z"></path>
<path d="M24.512 29.552c-0.096 0-0.144 0.112 0 0l0.176-0.128zM24.304 29.696s0 0 0 0v0s0 0-0.080 0zM24.144 29.792s0 0 0 0v0s0 0-0.080 0zM23.984 29.792s0 0 0 0 0 0 0 0 0 0 0 0zM23.744 29.92c-0.112 0-0.112 0.096 0 0h0.096s0.016 0.032-0.096 0.080z"></path>
</symbol>
<symbol id="nodejs-logo-icon" viewBox="0 0 28 32">
<path fill="#689f63" style="fill: var(--color31, #689f63)" d="M17.823 22.705c-5.137 0-6.216-2.356-6.216-4.328 0-0.188 0.152-0.341 0.341-0.341v0h1.518c0.001 0 0.002 0 0.003 0 0.165 0 0.302 0.123 0.323 0.282l0 0.002c0.241 1.547 0.922 2.327 4.016 2.327 2.469 0 3.519-0.568 3.519-1.873 0-0.752-0.298-1.32-4.13-1.689-3.207-0.312-5.194-1.022-5.194-3.59s1.987-3.775 5.336-3.775c3.746 0 5.676 1.306 5.847 4.101 0 0.003 0 0.006 0 0.009 0 0.093-0.032 0.179-0.086 0.247l0.001-0.001c-0.064 0.069-0.154 0.112-0.255 0.114h-1.561c-0.156-0.002-0.288-0.108-0.326-0.253l-0.001-0.002c-0.369-1.632-1.263-2.143-3.675-2.143-2.696 0-3.008 0.937-3.008 1.632s0.369 1.107 4.016 1.589 5.307 1.149 5.307 3.69-2.086 4.002-5.804 4.002zM14.191 32c-0.449-0-0.87-0.122-1.232-0.333l0.012 0.006-3.917-2.327c-0.582-0.326-0.298-0.44-0.114-0.511 0.676-0.208 1.264-0.478 1.807-0.814l-0.033 0.019c0.042-0.027 0.094-0.042 0.149-0.042s0.107 0.016 0.15 0.043l-0.001-0.001 3.008 1.76c0.052 0.026 0.113 0.042 0.177 0.042s0.126-0.015 0.18-0.043l-0.002 0.001 11.736-6.769c0.104-0.073 0.17-0.192 0.17-0.326 0-0 0-0 0-0v0-13.481c-0.003-0.137-0.075-0.256-0.183-0.325l-0.002-0.001-11.722-6.755c-0.050-0.033-0.111-0.052-0.177-0.052s-0.127 0.020-0.179 0.053l0.001-0.001-11.722 6.755c-0.109 0.070-0.181 0.189-0.184 0.326v13.482c-0 0.002-0 0.004-0 0.007 0 0.136 0.073 0.255 0.183 0.319l0.002 0.001 3.207 1.845c1.745 0.88 2.838-0.156 2.838-1.178v-13.325c0-0 0-0 0-0 0-0.18 0.146-0.326 0.326-0.326 0.005 0 0.010 0 0.015 0l-0.001-0h1.462c0.004-0 0.009-0 0.014-0 0.18 0 0.326 0.146 0.326 0.326 0 0 0 0 0 0v-0 13.368c0.017 0.127 0.027 0.273 0.027 0.422 0 1.795-1.455 3.25-3.25 3.25-0.090 0-0.178-0.004-0.266-0.011l0.012 0.001c-0.042 0.001-0.091 0.002-0.141 0.002-0.967 0-1.869-0.275-2.633-0.752l0.021 0.012-3.023-1.774c-0.744-0.435-1.235-1.229-1.235-2.139 0-0.016 0-0.033 0-0.049l-0 0.002v-13.481c0.004-0.905 0.494-1.695 1.223-2.122l0.012-0.006 11.736-6.783c0.355-0.194 0.778-0.308 1.228-0.308s0.872 0.114 1.241 0.315l-0.014-0.007 11.722 6.783c0.742 0.424 1.235 1.212 1.235 2.114 0 0.005-0 0.011-0 0.016v-0.001 13.481c-0.004 0.905-0.494 1.695-1.223 2.122l-0.012 0.006-11.722 6.769c-0.34 0.205-0.75 0.327-1.189 0.327-0.016 0-0.032-0-0.048-0l0.002 0z"></path>
</symbol>
<symbol id="parsel-logo-icon" viewBox="0 0 46 32">
<path fill="#bd844b" style="fill: var(--color32, #bd844b)" d="M36.558 8.932l-16.437-3.269-11.258 4.558 19.591 3.914 8.104-5.203z"></path>
<path fill="#e5c29e" style="fill: var(--color33, #e5c29e)" d="M36.558 8.932l-16.437-3.269 5.847-5.663 16.898 3.384-6.308 5.548z"></path>
<path fill="#c69770" style="fill: var(--color34, #c69770)" d="M28.455 32l8.104-6.193v-16.875l-8.104 5.203v17.865z"></path>
<path fill="#bd844b" style="fill: var(--color32, #bd844b)" opacity="0.5" d="M20.121 5.663v18.532l-11.258 2.878v-16.852l11.258-4.558z"></path>
<path fill="#e5c29e" style="fill: var(--color33, #e5c29e)" d="M36.558 8.932l9.485 0.852-6.055 5.847-11.534-1.496 8.104-5.203z"></path>
<path fill="#fff" style="fill: var(--color7, #fff)" d="M28.455 14.135l8.104-5.203 0.23 0.023-8.011 5.226-0.322-0.046z"></path>
<path fill="#fff" style="fill: var(--color7, #fff)" d="M36.558 8.932l-16.437-3.269 0.184-0.184 16.368 3.361-0.115 0.092z"></path>
<path fill="#d4a57c" style="fill: var(--color35, #d4a57c)" d="M28.455 32l-19.591-4.927v-16.852l19.591 3.914v17.865z"></path>
<path fill="#542a10" style="fill: var(--color36, #542a10)" d="M27.050 24.771l-2.44-0.599v-0.299l2.44 0.576v0.322z"></path>
<path fill="#542a10" style="fill: var(--color36, #542a10)" d="M27.050 24.978l-2.44-0.599v-0.115l2.44 0.599v0.115z"></path>
<path fill="#542a10" style="fill: var(--color36, #542a10)" d="M27.050 25.232l-2.44-0.599v-0.115l2.44 0.599v0.115z"></path>
<path fill="#542a10" style="fill: var(--color36, #542a10)" d="M27.050 25.485l-2.44-0.576v-0.115l2.44 0.576v0.115z"></path>
<path fill="#542a10" style="fill: var(--color36, #542a10)" d="M27.050 25.784l-2.44-0.599v-0.115l2.44 0.576v0.138z"></path>
<path fill="#542a10" style="fill: var(--color36, #542a10)" d="M27.050 26.037l-2.44-0.599v-0.092l2.44 0.576v0.115z"></path>
<path fill="#542a10" style="fill: var(--color36, #542a10)" d="M27.050 26.544l-2.44-0.576v-0.276l2.44 0.599v0.253z"></path>
<path fill="#542a10" style="fill: var(--color36, #542a10)" d="M27.050 27.235l-2.44-0.599v-0.092l2.44 0.576v0.115z"></path>
<path fill="#542a10" style="fill: var(--color36, #542a10)" d="M27.050 26.935l-2.44-0.599v-0.115l2.44 0.599v0.115z"></path>
<path fill="#542a10" style="fill: var(--color36, #542a10)" d="M27.050 27.488l-2.44-0.576v-0.138l2.44 0.599v0.115z"></path>
<path fill="#542a10" style="fill: var(--color36, #542a10)" d="M27.050 27.741l-2.44-0.576v-0.115l2.44 0.576v0.115z"></path>
<path fill="#542a10" style="fill: var(--color36, #542a10)" d="M27.050 28.040l-2.44-0.599v-0.115l2.44 0.599v0.115z"></path>
<path fill="#542a10" style="fill: var(--color36, #542a10)" d="M27.050 28.294l-2.44-0.576v-0.115l2.44 0.576v0.115z"></path>
<path fill="#542a10" style="fill: var(--color36, #542a10)" d="M27.050 28.639l-2.44-0.576v-0.276l2.44 0.599v0.253z"></path>
<path fill="#542a10" style="fill: var(--color36, #542a10)" d="M27.050 29.030l-2.44-0.599v-0.253l2.44 0.576v0.276z"></path>
<path fill="#542a10" style="fill: var(--color36, #542a10)" d="M27.050 29.56l-2.44-0.599v-0.345l2.44 0.576v0.368z"></path>
<path fill="#653a0e" style="fill: var(--color37, #653a0e)" opacity="0.2" d="M12.109 22.93l-1.082-0.99 0.691-0.921c0.050-0.040 0.114-0.063 0.184-0.063s0.134 0.024 0.185 0.064l-0.001-0c0.288 0.277 0.515 0.616 0.661 0.994l0.006 0.019z"></path>
<path fill="#653a0e" style="fill: var(--color37, #653a0e)" opacity="0.2" d="M12.224 20.881l1.588 0.391s0.391 0.138 0.714 0.99h0.414l-0.668 1.013-1.312-0.529h0.322c-0.191-0.733-0.56-1.364-1.059-1.865l0 0z"></path>
<path fill="#653a0e" style="fill: var(--color37, #653a0e)" opacity="0.2" d="M13.813 23.528l1.128-0.391 0.668 1.266c0.034 0.048 0.055 0.108 0.055 0.173s-0.021 0.125-0.055 0.174l0.001-0.001c-0.158 0.053-0.34 0.084-0.53 0.084s-0.371-0.031-0.542-0.088l0.012 0.003z"></path>
<path fill="#653a0e" style="fill: var(--color37, #653a0e)" opacity="0.2" d="M15.655 25.047l-0.691 1.266s-0.23 0.23-1.059 0v0.483l-0.737-1.289 0.691-0.944v0.391s1.174 0.322 1.796 0.092z"></path>
<path fill="#653a0e" style="fill: var(--color37, #653a0e)" opacity="0.2" d="M12.846 24.633v1.312l-1.335-0.322c-0.136-0.060-0.237-0.176-0.275-0.319l-0.001-0.003c0.018-0.369 0.154-0.704 0.371-0.97l-0.002 0.003z"></path>
<path fill="#653a0e" style="fill: var(--color37, #653a0e)" opacity="0.2" d="M11.050 25.232l-0.829-1.519s-0.184-0.414 0.322-0.967l-0.414-0.345 1.381 0.345 0.645 1.289-0.368-0.23c-0.397 0.362-0.666 0.858-0.736 1.416l-0.001 0.011z"></path>
<path fill="#e5c29e" style="fill: var(--color33, #e5c29e)" d="M13.951 1.819l6.17 3.845-11.258 4.558-7.551-3.845 12.639-4.558z"></path>
<path fill="#fff" style="fill: var(--color7, #fff)" d="M20.121 5.663l-0.161-0.115-11.281 4.558 0.184 0.115 11.258-4.558z"></path>
<path fill="#e5c29e" style="fill: var(--color33, #e5c29e)" d="M19.223 16.967l-19.223-3.43 8.863-3.315 19.591 3.914-9.232 2.832z"></path>
<path fill="#fff" style="fill: var(--color7, #fff)" d="M8.725 10.268l0.138-0.046 19.591 3.914-0.345 0.092-19.384-3.96z"></path>
</symbol>
<symbol id="phone-outline-icon" viewBox="0 0 32 32">
<path d="M13.568 17.92c0.741 0.804 1.536 1.533 2.388 2.191l0.044 0.033c0.886 0.672 1.887 1.304 2.94 1.849l0.116 0.055 0.256-0.24 0.24-0.256 0.288-0.384 0.096-0.112c1.12-1.488 2.512-3.28 4.8-2.224h0.144c1.824 1.088 3.68 2.128 5.52 3.2l0.144 0.080c0.45 0.314 0.808 0.729 1.048 1.213l0.008 0.019c0.221 0.469 0.351 1.019 0.352 1.6v0c-0.007 0.573-0.095 1.122-0.251 1.642l0.011-0.042c-0.192 0.613-0.425 1.143-0.709 1.64l0.021-0.040c-0.365 0.622-0.812 1.151-1.335 1.593l-0.009 0.007c-0.49 0.417-1.048 0.775-1.651 1.053l-0.045 0.019c-0.493 0.233-1.073 0.441-1.676 0.594l-0.068 0.014c-0.465 0.129-1.055 0.252-1.656 0.341l-0.088 0.011c-0.411 0.050-0.886 0.078-1.368 0.078s-0.957-0.028-1.425-0.083l0.057 0.005c-0.925-0.033-1.804-0.154-2.652-0.354l0.092 0.018c-1.024-0.315-1.893-0.668-2.724-1.086l0.1 0.046c-1.062-0.525-1.932-1.020-2.771-1.557l0.115 0.069-0.224-0.112c-0.8-0.496-1.6-1.040-2.528-1.696h0.032c-1.85-1.424-3.48-2.968-4.94-4.661l-0.036-0.043c-1.4-1.565-2.652-3.317-3.7-5.196l-0.076-0.148c-0.89-1.539-1.61-3.321-2.068-5.205l-0.028-0.139c-0.226-0.934-0.355-2.007-0.355-3.109 0-0.709 0.054-1.406 0.157-2.087l-0.010 0.076c0.176-1.078 0.505-2.046 0.969-2.933l-0.025 0.053c0.466-0.833 1.065-1.535 1.778-2.101l0.014-0.011c0.687-0.599 1.511-1.060 2.417-1.332l0.047-0.012c0.65-0.185 1.397-0.291 2.169-0.291 0.267 0 0.532 0.013 0.792 0.038l-0.033-0.003c0.276 0.012 0.529 0.1 0.741 0.243l-0.005-0.003c0.249 0.148 0.45 0.354 0.588 0.6l0.004 0.008 3.44 5.952c0.291 0.386 0.5 0.851 0.589 1.357l0.003 0.019c0.012 0.094 0.018 0.202 0.018 0.312 0 0.403-0.089 0.786-0.249 1.128l0.007-0.016c-0.145 0.412-0.352 0.768-0.612 1.077l0.004-0.005c-0.275 0.298-0.573 0.566-0.895 0.804l-0.017 0.012-0.688 0.528c-0.317 0.222-0.594 0.442-0.856 0.679l0.008-0.007c-0.099 0.084-0.176 0.192-0.222 0.315l-0.002 0.005s0 0 0 0l0.080 0.128c0.304 0.464 0.864 1.344 1.52 2.288 0.596 0.942 1.202 1.757 1.863 2.523l-0.023-0.027zM14.976 21.552c-1.001-0.738-1.884-1.509-2.699-2.347l-0.005-0.005c-0.696-0.803-1.364-1.685-1.974-2.609l-0.058-0.095c-0.64-0.944-1.248-1.856-1.6-2.352v-0.112c-0.236-0.277-0.38-0.639-0.38-1.035 0-0.069 0.004-0.138 0.013-0.205l-0.001 0.008c0.073-0.571 0.348-1.066 0.75-1.422l0.002-0.002c0.315-0.315 0.66-0.599 1.031-0.848l0.025-0.016c0.208-0.144 0.4-0.304 0.576-0.448v0c0.258-0.183 0.483-0.383 0.685-0.605l0.003-0.003c0.147-0.155 0.27-0.335 0.363-0.532l0.005-0.012c0.063-0.128 0.1-0.279 0.1-0.438 0-0.032-0.001-0.063-0.004-0.094l0 0.004c-0.055-0.209-0.149-0.391-0.274-0.547l0.002 0.003c-0.002-0.019-0.004-0.041-0.004-0.064s0.001-0.045 0.004-0.067l-0 0.003-3.536-5.92c-0.168-0.015-0.364-0.024-0.563-0.024-0.596 0-1.174 0.079-1.724 0.227l0.046-0.011c-0.703 0.174-1.315 0.49-1.832 0.918l0.008-0.006c-0.543 0.435-0.988 0.967-1.315 1.573l-0.013 0.027c-0.355 0.692-0.605 1.499-0.701 2.352l-0.003 0.032c-0.084 0.53-0.131 1.14-0.131 1.762 0 0.953 0.112 1.879 0.324 2.767l-0.016-0.081c0.438 1.858 1.098 3.497 1.967 5l-0.047-0.088c1.071 1.904 2.247 3.549 3.579 5.055l-0.027-0.031c1.413 1.592 2.948 3.015 4.609 4.279l0.079 0.057c0.784 0.592 1.6 1.12 2.416 1.6l0.224 0.144c0.68 0.446 1.487 0.909 2.32 1.327l0.144 0.065c0.651 0.337 1.425 0.657 2.226 0.914l0.11 0.030c0.659 0.218 1.43 0.381 2.226 0.46l0.046 0.004c0.243 0.021 0.525 0.032 0.811 0.032 0.533 0 1.056-0.041 1.567-0.119l-0.057 0.007c0.618-0.078 1.161-0.185 1.69-0.324l-0.090 0.020c0.552-0.138 1.032-0.313 1.486-0.532l-0.046 0.020c0.497-0.212 0.924-0.481 1.303-0.806l-0.007 0.006c0.379-0.33 0.698-0.716 0.948-1.146l0.012-0.022c0.192-0.345 0.365-0.748 0.499-1.168l0.013-0.048c0.109-0.325 0.173-0.698 0.176-1.087v-0.001c0.001-0.027 0.002-0.058 0.002-0.090 0-0.287-0.066-0.559-0.183-0.801l0.005 0.011c-0.11-0.225-0.273-0.41-0.475-0.541l-0.005-0.003c-1.408-1.024-3.872-2.256-5.472-3.2v0 0c-0.976-0.432-1.888 0.72-2.624 1.696v0l-0.368 0.48c-0.116 0.154-0.232 0.289-0.354 0.418l0.002-0.002-0.448 0.4c-0.166 0.124-0.356 0.232-0.559 0.314l-0.017 0.006c-0.151 0.064-0.326 0.101-0.511 0.101-0.040 0-0.079-0.002-0.118-0.005l0.005 0c-0.188-0.011-0.362-0.057-0.521-0.132l0.009 0.004h-0.080c-1.373-0.658-2.542-1.35-3.645-2.131l0.077 0.051z"></path>
</symbol>
<symbol id="portfolio-icon" viewBox="0 0 32 32">
<path fill="#000" style="fill: var(--color12, #000)" d="M30.176 32h-28.352c-0 0-0 0-0 0-1.002 0-1.815-0.808-1.824-1.807v-17.553c0.009-1 0.822-1.808 1.824-1.808 0 0 0 0 0 0h7.632c0.003 0 0.006 0 0.009 0 0.669 0 1.279 0.255 1.737 0.674l-0.002-0.002 4.64 4.384c0.17 0.168 0.405 0.272 0.663 0.272 0.003 0 0.006 0 0.009-0h13.664c1.039 0.161 1.824 1.049 1.824 2.12 0 0.014-0 0.028-0 0.042l0-0.002v11.872c-0.009 1-0.822 1.808-1.824 1.808-0 0-0 0-0 0v0zM1.824 12.384c-0.122 0.028-0.213 0.13-0.224 0.255l-0 0.001v17.6c0.016 0.145 0.138 0.257 0.286 0.257 0.006 0 0.012-0 0.019-0.001l-0.001 0h28.272c0.005 0 0.012 0.001 0.018 0.001 0.148 0 0.27-0.112 0.286-0.255l0-0.001v-11.92c-0.019-0.247-0.139-0.462-0.318-0.607l-0.002-0.001h-13.648c-0.001 0-0.001 0-0.002 0-0.661 0-1.263-0.256-1.712-0.673l0.002 0.001-4.656-4.384c-0.18-0.168-0.422-0.272-0.688-0.272h-0z"></path>
<path fill="#000" style="fill: var(--color12, #000)" d="M11.792 20.032h-6.832c-0.442 0-0.8-0.358-0.8-0.8s0.358-0.8 0.8-0.8v0h6.832c0.442 0 0.8 0.358 0.8 0.8s-0.358 0.8-0.8 0.8v0z"></path>
<path fill="#000" style="fill: var(--color12, #000)" d="M11.744 22.496h-6.832c-0.424 0-0.768-0.344-0.768-0.768v0c0-0 0-0 0-0 0-0.427 0.342-0.775 0.767-0.784h6.833c0.426 0.009 0.768 0.356 0.768 0.784 0 0 0 0 0 0v0c0 0.424-0.344 0.768-0.768 0.768v0z"></path>
<path fill="#000" style="fill: var(--color12, #000)" d="M11.744 24.912h-6.832c-0.442 0-0.8-0.358-0.8-0.8s0.358-0.8 0.8-0.8v0h6.832c0.442 0 0.8 0.358 0.8 0.8s-0.358 0.8-0.8 0.8v0z"></path>
<path fill="#000" style="fill: var(--color12, #000)" d="M32 20.896h-1.52v-7.328c0-0.557-0.451-1.008-1.008-1.008h-1.040v-1.6h1.040c1.398 0.009 2.529 1.144 2.529 2.544 0 0.023-0 0.045-0.001 0.067l0-0.003z"></path>
<path fill="#1d1d1b" style="fill: var(--color38, #1d1d1b)" d="M29.040 17.056h-1.52v-15.040c-0.025-0.235-0.222-0.416-0.462-0.416-0.001 0-0.002 0-0.003 0h-15.856c-0.256 0-0.464 0.208-0.464 0.464v0 4.144h-1.6v-4.192c-0-0.005-0-0.011-0-0.017 0-1.105 0.895-2 2-2 0.023 0 0.045 0 0.067 0.001l-0.003-0h15.84c1.1 0.018 1.984 0.914 1.984 2.016 0 0 0 0 0 0v0z"></path>
<path fill="#1d1d1b" style="fill: var(--color38, #1d1d1b)" d="M24.464 17.056h-1.52v-10.384c0-0.256-0.208-0.464-0.464-0.464v0h-15.84c-0.256 0-0.464 0.208-0.464 0.464v0 4.176h-1.52v-4.176c-0-0.005-0-0.010-0-0.016 0-1.099 0.886-1.991 1.983-2h15.841c1.098 0.009 1.984 0.901 1.984 2 0 0.006-0 0.011-0 0.017v-0.001z"></path>
</symbol>
<symbol id="reactjs-logo-icon" viewBox="0 0 36 32">
<path fill="#00d8ff" style="fill: var(--color39, #00d8ff)" d="M35.935 16.009c0-2.39-2.983-4.636-7.546-6.037 1.060-4.582 0.575-8.373-1.437-9.559-0.458-0.261-1.005-0.415-1.589-0.415-0.035 0-0.070 0.001-0.105 0.002l0.005-0v1.635c0.007-0 0.016-0 0.025-0 0.299 0 0.581 0.073 0.83 0.203l-0.010-0.005c0.988 0.575 1.419 2.749 1.078 5.552 0 0.683-0.216 1.401-0.359 2.138-1.284-0.318-2.867-0.596-4.48-0.775l-0.174-0.016c-0.989-1.327-1.99-2.499-3.062-3.602l0.008 0.008c1.565-1.772 3.68-3.025 6.076-3.492l0.069-0.011v-1.635c-2.012 0-4.636 1.437-7.295 3.935-1.86-2.069-4.399-3.495-7.263-3.927l-0.067-0.008v1.671c2.458 0.445 4.574 1.67 6.136 3.404l0.009 0.010c-1.063 1.089-2.053 2.262-2.956 3.503l-0.063 0.091c-1.769 0.187-3.352 0.472-4.893 0.86l0.24-0.051c-0.143-0.571-0.276-1.291-0.367-2.024l-0.010-0.096c-0.359-2.803 0-4.977 1.060-5.552 0.194-0.097 0.423-0.154 0.665-0.154 0.063 0 0.126 0.004 0.187 0.011l-0.007-0.001v-1.671c-0.007-0-0.015-0-0.023-0-0.602 0-1.164 0.167-1.644 0.457l0.014-0.008c-2.066 1.186-2.515 4.941-1.455 9.523-4.564 1.401-7.528 3.665-7.528 6.037s2.983 4.636 7.546 6.037c-1.060 4.654-0.575 8.355 1.491 9.541 0.442 0.261 0.974 0.415 1.541 0.415 0.033 0 0.066-0.001 0.098-0.002l-0.005 0c2.030 0 4.654-1.437 7.331-3.917 1.865 2.042 4.395 3.447 7.245 3.873l0.067 0.008c0.021 0 0.046 0.001 0.070 0.001 0.579 0 1.124-0.147 1.6-0.405l-0.018 0.009c2.066-1.186 2.515-4.887 1.455-9.541 4.546-1.401 7.51-3.593 7.51-6.019zM21.309 16.009c0-0.005 0-0.012 0-0.018 0-1.856-1.504-3.36-3.36-3.36s-3.36 1.504-3.36 3.36c0 1.856 1.504 3.36 3.36 3.36 0.006 0 0.013-0 0.019-0h-0.001c1.842-0.010 3.332-1.5 3.342-3.341v-0.001zM26.394 11.086c-0.27 0.934-0.611 1.922-0.988 2.893-0.305-0.593-0.611-1.168-0.952-1.797s-0.701-1.15-1.060-1.797c1.192 0.166 2.209 0.367 3.205 0.619l-0.204-0.044zM23.052 18.884q-0.862 1.491-1.797 2.803c-1.078 0.090-2.192 0.144-3.306 0.144s-2.21 0-3.288-0.144c-0.611-0.862-1.204-1.797-1.797-2.785s-1.060-1.922-1.527-2.911c0.449-0.988 0.97-1.958 1.509-2.929s1.168-1.922 1.797-2.785c1.078-0.108 2.192-0.162 3.306-0.162s2.21 0 3.288 0.144c0.611 0.88 1.204 1.797 1.797 2.785s1.060 1.94 1.527 2.911c-0.467 0.988-0.97 1.976-1.509 2.929zM25.406 17.967q0.593 1.491 1.024 2.911-1.455 0.359-3.019 0.593c0.359-0.575 0.701-1.15 1.042-1.797s0.647-1.168 0.952-1.797zM17.967 25.783c-0.693-0.717-1.357-1.478-1.982-2.272l-0.048-0.064h2.012c0.683 0 1.366 0 2.030 0-0.665 0.844-1.348 1.635-2.012 2.336zM12.577 21.561c-1.042-0.162-2.048-0.341-3.019-0.575 0.287-0.952 0.611-1.922 0.988-2.893 0.305 0.575 0.629 1.168 0.97 1.797s0.701 1.168 1.060 1.797zM17.967 6.325c0.7 0.717 1.365 1.478 1.985 2.276l0.045 0.060c-0.665 0-1.33 0-2.012 0s-1.366 0-2.030 0c0.655-0.9 1.315-1.691 2.022-2.436l-0.010 0.010zM12.577 10.547c-0.359 0.557-0.719 1.132-1.060 1.797l-0.952 1.797c-0.395-0.988-0.719-1.958-1.006-2.911 0.916-0.341 1.922-0.449 3.019-0.683zM5.893 19.764c-2.587-1.168-4.276-2.605-4.276-3.755s1.689-2.605 4.276-3.701c0.523-0.237 1.195-0.493 1.884-0.714l0.147-0.041c0.526 1.777 1.088 3.261 1.743 4.694l-0.090-0.22c-0.571 1.215-1.127 2.688-1.576 4.207l-0.059 0.231q-1.078-0.359-2.048-0.755zM9.846 30.239c-1.006-0.575-1.437-2.749-1.096-5.552 0.102-0.843 0.234-1.575 0.405-2.293l-0.028 0.137c1.292 0.34 2.868 0.63 4.476 0.812l0.16 0.015c0.996 1.326 1.997 2.498 3.065 3.605l-0.011-0.011c-1.566 1.758-3.683 2.994-6.078 3.439l-0.067 0.010c-0.002 0-0.005 0-0.007 0-0.299 0-0.581-0.073-0.829-0.202l0.010 0.005zM27.203 24.651c0.359 2.803 0 4.977-1.060 5.552-0.229 0.125-0.501 0.199-0.79 0.199-0.019 0-0.038-0-0.057-0.001l0.003 0c-2.458-0.468-4.572-1.702-6.136-3.44l-0.009-0.010c1.056-1.091 2.046-2.263 2.953-3.5l0.066-0.094c1.769-0.187 3.352-0.472 4.893-0.86l-0.24 0.051c0.153 0.593 0.286 1.32 0.37 2.061l0.007 0.077zM30.024 19.764c-0.629 0.27-1.312 0.503-2.030 0.737-0.513-1.763-1.069-3.242-1.722-4.667l0.087 0.211c0.542-1.188 1.092-2.661 1.549-4.174l0.068-0.264c0.719 0.234 1.419 0.467 2.066 0.737 2.587 1.114 4.258 2.569 4.258 3.719s-1.671 2.605-4.276 3.701z"></path>
</symbol>
<symbol id="redux-logo-icon" viewBox="0 0 34 32">
<path fill="#764abc" style="fill: var(--color40, #764abc)" d="M23.355 22.344c1.204-0.146 2.127-1.162 2.127-2.393 0-1.32-1.062-2.392-2.378-2.41l-0.002-0h-0.084c-1.296 0.055-2.326 1.12-2.326 2.424 0 0.024 0 0.049 0.001 0.073l-0-0.004c0.037 0.618 0.293 1.17 0.692 1.585l-0.001-0.001c-1.572 2.957-3.992 5.285-6.935 6.701l-0.092 0.040c-1.598 0.896-3.508 1.423-5.54 1.423-0.512 0-1.017-0.034-1.511-0.098l0.058 0.006c-1.819-0.158-3.386-1.112-4.369-2.509l-0.013-0.019c-0.705-1.002-1.126-2.247-1.126-3.59 0-1.119 0.293-2.17 0.805-3.081l-0.016 0.031c0.731-1.35 1.711-2.476 2.888-3.351l0.027-0.019c-0.168-0.556-0.421-1.5-0.556-2.191-6.218 4.499-5.578 10.599-3.69 13.481 1.636 2.135 4.186 3.498 7.055 3.498 0.144 0 0.288-0.003 0.43-0.010l-0.020 0.001c0.915-0.001 1.804-0.112 2.655-0.319l-0.077 0.016c5.342-0.978 9.714-4.422 11.955-9.085l0.043-0.099zM30.905 17.019c-3.209-3.637-7.881-5.919-13.086-5.919-0.139 0-0.277 0.002-0.416 0.005l0.021-0h-0.758c-0.396-0.766-1.182-1.281-2.088-1.281-0.007 0-0.013 0-0.019 0h-0.083c-1.224 0.126-2.171 1.151-2.171 2.398 0 1.276 0.992 2.321 2.248 2.404l0.007 0h0.101c0.974-0.014 1.806-0.607 2.168-1.45l0.006-0.016h0.775c0.006 0 0.013 0 0.020 0 3.402 0 6.559 1.046 9.169 2.833l-0.055-0.036c2.046 1.307 3.623 3.188 4.522 5.416l0.028 0.077c0.331 0.716 0.524 1.555 0.524 2.438 0 0.953-0.225 1.853-0.624 2.651l0.016-0.034c-1.050 2.107-3.188 3.529-5.659 3.529-0.102 0-0.203-0.002-0.304-0.007l0.014 0.001c-1.523-0.023-2.962-0.356-4.265-0.937l0.069 0.028c-0.58 0.517-1.211 1.025-1.868 1.502l-0.070 0.049c1.619 0.803 3.52 1.29 5.53 1.331l0.014 0c0.095 0.003 0.206 0.005 0.318 0.005 3.383 0 6.344-1.809 7.967-4.513l0.023-0.042c0.451-1.079 0.713-2.334 0.713-3.649 0-2.641-1.057-5.036-2.771-6.783l0.002 0.002zM9.116 23.069c0.047 1.294 1.107 2.325 2.408 2.325 0.001 0 0.001 0 0.002 0h0.084c1.224-0.126 2.171-1.151 2.171-2.398 0-1.276-0.992-2.321-2.248-2.404l-0.007-0c-0.046-0.008-0.098-0.012-0.152-0.012s-0.106 0.005-0.157 0.013l0.005-0.001c-1.479-2.346-2.357-5.201-2.357-8.26 0-0.432 0.017-0.859 0.052-1.282l-0.004 0.056c0.126-2.536 1.058-4.832 2.544-6.66l-0.017 0.021c1.32-1.433 3.185-2.346 5.263-2.409l0.011-0c4.533-0.084 6.471 5.578 6.606 7.853 0.556 0.135 1.5 0.421 2.14 0.64-0.522-6.943-4.803-10.549-8.914-10.549-4.183 0.195-7.658 3.014-8.829 6.84l-0.018 0.069c-0.599 1.696-0.945 3.652-0.945 5.689 0 3.449 0.992 6.665 2.707 9.381l-0.043-0.072c-0.196 0.293-0.313 0.653-0.313 1.041 0 0.067 0.003 0.133 0.010 0.198l-0.001-0.008z"></path>
</symbol>
<symbol id="setting-line-icon" viewBox="0 0 32 32">
<path d="M25.6 4.8c-0.077-0.073-0.167-0.132-0.266-0.174l-0.006-0.002c-0.046-0.009-0.098-0.014-0.152-0.014s-0.106 0.005-0.157 0.015l0.005-0.001c-0.046-0.008-0.098-0.013-0.152-0.013s-0.106 0.005-0.157 0.013l0.006-0.001c-0.1 0.044-0.184 0.103-0.256 0.176l-0 0-1.6 1.6c-0.121 0.1-0.277 0.161-0.448 0.161s-0.327-0.061-0.449-0.162l0.001 0.001-0.592-0.352-0.672-0.32-0.688-0.304-0.816-0.080c-0.281-0.096-0.48-0.359-0.48-0.667 0-0.002 0-0.003 0-0.005v0-2.48c0.009-0.046 0.013-0.098 0.013-0.152s-0.005-0.106-0.014-0.157l0.001 0.005c-0.052-0.112-0.122-0.208-0.207-0.287l-0.001-0c-0.069-0.076-0.155-0.136-0.251-0.174l-0.005-0.002c-0.048-0.009-0.103-0.013-0.16-0.013s-0.112 0.005-0.166 0.014l0.006-0.001h-3.104c-0.043-0.009-0.093-0.014-0.144-0.014s-0.101 0.005-0.149 0.014l0.005-0.001c-0.107 0.039-0.198 0.099-0.272 0.176l-0 0c-0.071 0.073-0.13 0.157-0.174 0.25l-0.002 0.006c-0.009 0.046-0.013 0.098-0.013 0.152s0.005 0.106 0.014 0.157l-0.001-0.005v2.304c0 0.003 0 0.006 0 0.009 0 0.34-0.247 0.623-0.572 0.678l-0.004 0.001-0.72 0.192c-0.283 0.078-0.517 0.16-0.744 0.255l0.040-0.015c-0.254 0.088-0.465 0.18-0.668 0.285l0.028-0.013-0.64 0.32c-0.093 0.048-0.203 0.077-0.32 0.077-0.194 0-0.369-0.078-0.496-0.205l0 0-1.84-1.744c-0.067-0.072-0.146-0.131-0.235-0.174l-0.005-0.002c-0.043-0.009-0.093-0.014-0.144-0.014s-0.101 0.005-0.149 0.014l0.005-0.001c-0.046-0.008-0.098-0.013-0.152-0.013s-0.106 0.005-0.157 0.013l0.005-0.001-0.272 0.192-2.176 2.16c-0.083 0.073-0.149 0.164-0.19 0.267l-0.002 0.005c-0.009 0.046-0.015 0.098-0.015 0.152s0.005 0.106 0.016 0.157l-0.001-0.005c-0.008 0.046-0.013 0.098-0.013 0.152s0.005 0.106 0.013 0.157l-0.001-0.005c0.024 0.097 0.063 0.183 0.114 0.259l-0.002-0.003 1.6 1.6c0.1 0.121 0.161 0.277 0.161 0.448s-0.061 0.327-0.162 0.449l0.001-0.001c-0.112 0.192-0.24 0.384-0.352 0.592s-0.224 0.448-0.32 0.672-0.208 0.448-0.304 0.688-0.16 0.448-0.24 0.704c-0.101 0.28-0.363 0.477-0.672 0.48h-2.32c-0.046-0.009-0.098-0.013-0.152-0.013s-0.106 0.005-0.157 0.014l0.005-0.001c-0.114 0.061-0.21 0.142-0.287 0.238l-0.001 0.002c-0.076 0.069-0.136 0.155-0.174 0.251l-0.002 0.005c-0.009 0.048-0.013 0.103-0.013 0.16s0.005 0.112 0.014 0.166l-0.001-0.006v3.104c-0.009 0.043-0.014 0.093-0.014 0.144s0.005 0.101 0.014 0.149l-0.001-0.005c0.039 0.107 0.099 0.198 0.176 0.272l0 0c0.073 0.071 0.157 0.13 0.25 0.174l0.006 0.002c0.046 0.009 0.098 0.013 0.152 0.013s0.106-0.005 0.157-0.014l-0.005 0.001h2.304c0.003-0 0.006-0 0.009-0 0.34 0 0.623 0.247 0.678 0.572l0.001 0.004c0 0.256 0.128 0.48 0.192 0.688 0.078 0.283 0.16 0.517 0.255 0.744l-0.015-0.040c0 0.208 0.176 0.448 0.288 0.688s0.208 0.464 0.32 0.656c0.048 0.093 0.077 0.203 0.077 0.32 0 0.194-0.078 0.369-0.205 0.496l-1.76 1.76c-0.072 0.067-0.131 0.146-0.174 0.235l-0.002 0.005c-0.031 0.086-0.048 0.185-0.048 0.288s0.018 0.202 0.050 0.294l-0.002-0.006c0.057 0.11 0.12 0.204 0.194 0.29l-0.002-0.002 2.080 2.304c0.077 0.073 0.167 0.132 0.266 0.174l0.006 0.002c0.048 0.009 0.103 0.014 0.16 0.014s0.112-0.005 0.166-0.015l-0.006 0.001c0.048 0.008 0.104 0.012 0.16 0.012s0.112-0.005 0.166-0.013l-0.006 0.001c0.098-0.045 0.182-0.098 0.258-0.161l-0.002 0.001 1.6-1.6c0.121-0.1 0.277-0.161 0.448-0.161s0.327 0.061 0.449 0.162l-0.001-0.001 0.592 0.352 0.672 0.32 0.688 0.304 0.704 0.24c0.281 0.096 0.48 0.359 0.48 0.667 0 0.002 0 0.003-0 0.005v-0 2.48c-0.009 0.046-0.013 0.098-0.013 0.152s0.005 0.106 0.014 0.157l-0.001-0.005c0.046 0.099 0.105 0.183 0.176 0.256l-0-0c0.139 0.139 0.331 0.225 0.543 0.225 0.012 0 0.023-0 0.035-0.001l-0.002 0h3.104c0.043 0.009 0.093 0.014 0.144 0.014s0.101-0.005 0.149-0.014l-0.005 0.001c0.105-0.044 0.195-0.103 0.272-0.176l-0 0c0.071-0.073 0.13-0.157 0.174-0.25l0.002-0.006c0.009-0.046 0.013-0.098 0.013-0.152s-0.005-0.106-0.014-0.157l0.001 0.005v-2.496c-0-0.003-0-0.006-0-0.009 0-0.34 0.247-0.623 0.572-0.678l0.004-0.001 0.688-0.192c0.283-0.078 0.517-0.16 0.744-0.255l-0.040 0.015 0.688-0.288c0.24-0.112 0.464-0.208 0.656-0.32 0.093-0.048 0.203-0.077 0.32-0.077 0.194 0 0.369 0.078 0.496 0.205l1.76 1.76c0.067 0.072 0.146 0.131 0.235 0.174l0.005 0.002c0.046 0.009 0.098 0.015 0.152 0.015s0.106-0.005 0.157-0.015l-0.005 0.001c0.043 0.009 0.093 0.014 0.144 0.014s0.101-0.005 0.149-0.014l-0.005 0.001c0.099-0.046 0.183-0.105 0.256-0.176l-0 0 2.432-2.096c0.073-0.077 0.132-0.167 0.174-0.266l0.002-0.006c0.009-0.048 0.014-0.103 0.014-0.16s-0.005-0.112-0.015-0.166l0.001 0.006c0.008-0.048 0.012-0.104 0.012-0.16s-0.005-0.112-0.013-0.166l0.001 0.006c-0.045-0.098-0.098-0.182-0.161-0.258l0.001 0.002-1.6-1.6c-0.1-0.121-0.161-0.277-0.161-0.448s0.061-0.327 0.162-0.449l-0.001 0.001c0.112-0.192 0.24-0.384 0.352-0.592s0.224-0.448 0.32-0.672 0.208-0.448 0.304-0.688 0.16-0.448 0.24-0.704c0.096-0.281 0.359-0.48 0.667-0.48 0.002 0 0.003 0 0.005 0h2.48c0.046 0.012 0.098 0.019 0.152 0.019s0.106-0.007 0.156-0.020l-0.004 0.001c0.101-0.033 0.187-0.088 0.256-0.16l0-0c0.076-0.069 0.136-0.155 0.174-0.251l0.002-0.005c0.009-0.048 0.013-0.103 0.013-0.16s-0.005-0.112-0.014-0.166l0.001 0.006v-3.232c0.009-0.043 0.014-0.093 0.014-0.144s-0.005-0.101-0.014-0.149l0.001 0.005c-0.078-0.12-0.187-0.213-0.315-0.27l-0.005-0.002c-0.073-0.071-0.157-0.13-0.25-0.174l-0.006-0.002c-0.046-0.009-0.098-0.013-0.152-0.013s-0.106 0.005-0.157 0.014l0.005-0.001h-2.304c-0.002 0-0.004 0-0.007 0-0.346 0-0.633-0.256-0.681-0.588l-0-0.004-0.192-0.704c0-0.208-0.144-0.448-0.24-0.688v0c-0.093-0.266-0.185-0.483-0.288-0.693l0.016 0.037c-0.096-0.208-0.208-0.432-0.32-0.64-0.048-0.093-0.077-0.203-0.077-0.32 0-0.194 0.078-0.369 0.205-0.496l-0 0 1.76-1.792c0.072-0.067 0.131-0.146 0.174-0.235l0.002-0.005c0.009-0.043 0.014-0.093 0.014-0.144s-0.005-0.101-0.014-0.149l0.001 0.005c0.008-0.046 0.013-0.098 0.013-0.152s-0.005-0.106-0.013-0.157l0.001 0.005c-0.062-0.103-0.125-0.192-0.195-0.276l0.003 0.004-2.096-2.224zM25.872 3.328c0.276 0.121 0.51 0.288 0.703 0.495l0.001 0.001 2.192 2.176c0.198 0.197 0.359 0.431 0.474 0.689l0.006 0.015c0.111 0.25 0.176 0.541 0.176 0.848s-0.065 0.598-0.182 0.862l0.005-0.014c-0.121 0.27-0.288 0.499-0.494 0.687l-0.002 0.002-1.392 1.424 0.128 0.256c0.112 0.24 0.208 0.496 0.304 0.736v0c0.096 0.24 0.176 0.496 0.272 0.768s0 0.192 0 0.272h1.744c0.306 0.004 0.597 0.062 0.865 0.166l-0.017-0.006c0.273 0.121 0.507 0.282 0.704 0.48v0c0.183 0.202 0.338 0.434 0.457 0.687l0.007 0.017c0.101 0.24 0.16 0.52 0.16 0.813 0 0.007-0 0.013-0 0.020v-0.001 3.104c0 0.012 0 0.026 0 0.041 0 0.291-0.059 0.569-0.166 0.821l0.005-0.014c-0.121 0.273-0.282 0.507-0.48 0.704v0c-0.201 0.201-0.44 0.363-0.706 0.475l-0.014 0.005c-0.246 0.098-0.532 0.156-0.83 0.16l-0.002 0h-1.968l-0.112 0.288c-0.096 0.256-0.208 0.496-0.32 0.752s-0.24 0.512-0.368 0.752l-0.128 0.224 1.232 1.216c0.192 0.197 0.349 0.431 0.458 0.689l0.006 0.015c0.091 0.247 0.144 0.532 0.144 0.83 0 0.001 0 0.001 0 0.002v-0c0 0.004 0 0.008 0 0.013 0 0.294-0.053 0.575-0.149 0.836l0.005-0.017c-0.115 0.273-0.272 0.507-0.464 0.704l0-0-2.192 2.16c-0.389 0.414-0.941 0.673-1.552 0.673-0.017 0-0.033-0-0.050-0.001l0.002 0c-0.312-0.001-0.609-0.066-0.879-0.182l0.015 0.006c-0.272-0.116-0.502-0.285-0.686-0.494l-0.002-0.002-1.392-1.392-0.272 0.128-0.768 0.32-0.784 0.272-0.272 0.080v1.728c-0.004 0.306-0.062 0.597-0.166 0.865l0.006-0.017c-0.121 0.273-0.282 0.507-0.48 0.704v0c-0.202 0.183-0.434 0.338-0.687 0.457l-0.017 0.007c-0.24 0.101-0.52 0.16-0.813 0.16-0.007 0-0.013-0-0.020-0h-3.055c-0.025 0.001-0.054 0.002-0.084 0.002-0.595 0-1.132-0.246-1.516-0.641l-0.001-0.001c-0.201-0.201-0.363-0.44-0.475-0.706l-0.005-0.014c-0.098-0.246-0.156-0.532-0.16-0.83l-0-0.002v-1.776l-0.288-0.112-0.752-0.32-0.752-0.368-0.224-0.128-1.216 1.232c-0.201 0.196-0.44 0.353-0.706 0.459l-0.014 0.005c-0.238 0.091-0.514 0.144-0.802 0.144-0.005 0-0.010-0-0.015-0h0.001c-0.007 0-0.016 0-0.024 0-0.29 0-0.568-0.053-0.824-0.149l0.016 0.005c-0.273-0.115-0.507-0.272-0.704-0.464l0 0-2.208-2.192c-0.198-0.197-0.359-0.431-0.474-0.689l-0.006-0.015c-0.111-0.25-0.176-0.541-0.176-0.848s0.065-0.598 0.182-0.862l-0.005 0.014c0.116-0.272 0.285-0.502 0.494-0.686l0.002-0.002 1.472-1.392c0-0.096-0.080-0.192-0.128-0.272s-0.208-0.496-0.32-0.768-0.192-0.512-0.272-0.784 0-0.192 0-0.272h-1.888c-0.306-0.004-0.597-0.062-0.865-0.166l0.017 0.006c-0.273-0.121-0.507-0.282-0.704-0.48v0c-0.183-0.202-0.338-0.434-0.457-0.687l-0.007-0.017c-0.101-0.24-0.16-0.52-0.16-0.813 0-0.007 0-0.013 0-0.020v0.001-3.12c-0-0.012-0-0.026-0-0.041 0-0.291 0.059-0.569 0.166-0.821l-0.005 0.014c0.125-0.277 0.286-0.515 0.481-0.721l-0.001 0.001c0.201-0.201 0.44-0.363 0.706-0.475l0.014-0.005c0.246-0.098 0.532-0.156 0.83-0.16l0.002-0h1.968l0.112-0.288c0.096-0.256 0.208-0.512 0.32-0.752s0.24-0.512 0.368-0.752 0.080-0.16 0.128-0.224l-1.216-1.232c-0.202-0.198-0.369-0.431-0.49-0.69l-0.006-0.014c-0.114-0.249-0.184-0.539-0.192-0.845l-0-0.003c-0.001-0.023-0.001-0.049-0.001-0.076 0-0.6 0.252-1.141 0.656-1.523l0.001-0.001 2.208-2.144c0.197-0.198 0.431-0.359 0.689-0.474l0.015-0.006c0.25-0.111 0.541-0.176 0.848-0.176s0.598 0.065 0.862 0.182l-0.014-0.005c0.27 0.121 0.499 0.288 0.687 0.494l0.002 0.002 1.424 1.472 0.256-0.128 0.72-0.304 0.784-0.272h0.272v-1.904c0.015-0.309 0.084-0.599 0.198-0.864l-0.006 0.016c0.121-0.273 0.282-0.507 0.48-0.704v0c0.206-0.19 0.444-0.35 0.703-0.473l0.017-0.007c0.24-0.101 0.52-0.16 0.813-0.16 0.007 0 0.013 0 0.020 0h3.103c0.012-0 0.026-0 0.041-0 0.291 0 0.569 0.059 0.821 0.166l-0.014-0.005c0.277 0.125 0.515 0.286 0.721 0.481l-0.001-0.001c0.201 0.201 0.363 0.44 0.475 0.706l0.005 0.014c0.099 0.246 0.158 0.532 0.16 0.831v1.985l0.288 0.112 0.752 0.32 0.752 0.368 0.224 0.128 1.232-1.216c0.198-0.202 0.431-0.369 0.69-0.49l0.014-0.006c0.245-0.101 0.53-0.16 0.828-0.16 0.007 0 0.014 0 0.021 0h-0.001c0.009-0 0.020-0 0.032-0 0.294 0 0.575 0.059 0.831 0.166l-0.014-0.005zM16 9.2c0.003 0 0.006 0 0.010 0 0.478 0 0.944 0.052 1.393 0.152l-0.043-0.008c0.482 0.088 0.911 0.227 1.313 0.414l-0.033-0.014c0.442 0.188 0.821 0.397 1.175 0.639l-0.023-0.015c0.378 0.253 0.708 0.527 1.007 0.831l0.001 0.001c0.299 0.3 0.568 0.629 0.801 0.984l0.015 0.024c0.218 0.328 0.426 0.706 0.604 1.101l0.020 0.051c0.146 0.349 0.274 0.761 0.361 1.188l0.007 0.044c0.092 0.409 0.144 0.878 0.144 1.36s-0.052 0.951-0.152 1.403l0.008-0.043c-0.088 0.482-0.227 0.911-0.414 1.313l0.014-0.033c-0.198 0.446-0.406 0.824-0.643 1.182l0.019-0.030c-0.238 0.399-0.497 0.745-0.788 1.060l0.004-0.004c-0.299 0.299-0.629 0.568-0.984 0.801l-0.024 0.015c-0.328 0.218-0.706 0.426-1.101 0.604l-0.051 0.020c-0.349 0.146-0.761 0.274-1.188 0.361l-0.044 0.007c-0.409 0.092-0.878 0.144-1.36 0.144s-0.951-0.052-1.403-0.152l0.043 0.008c-0.482-0.088-0.911-0.227-1.313-0.414l0.033 0.014c-0.446-0.198-0.824-0.406-1.182-0.643l0.030 0.019c-0.399-0.238-0.745-0.497-1.060-0.788l0.004 0.004c-0.299-0.299-0.568-0.629-0.801-0.984l-0.015-0.024c-0.218-0.328-0.426-0.706-0.604-1.101l-0.020-0.051c-0.146-0.349-0.274-0.761-0.361-1.188l-0.007-0.044c-0.092-0.409-0.144-0.878-0.144-1.36s0.052-0.951 0.152-1.403l-0.008 0.043c0.088-0.482 0.227-0.911 0.414-1.313l-0.014 0.033c0.198-0.446 0.406-0.824 0.643-1.182l-0.019 0.030c0.238-0.399 0.497-0.745 0.788-1.060l-0.004 0.004c0.3-0.299 0.629-0.568 0.984-0.801l0.024-0.015c0.328-0.218 0.706-0.426 1.101-0.604l0.051-0.020c0.349-0.146 0.761-0.274 1.188-0.361l0.044-0.007c0.419-0.11 0.902-0.179 1.4-0.192l0.008-0zM17.088 10.704c-0.327-0.061-0.703-0.096-1.088-0.096s-0.761 0.035-1.126 0.102l0.038-0.006c-0.382 0.089-0.708 0.194-1.022 0.32l0.046-0.017c-0.369 0.163-0.679 0.328-0.975 0.514l0.031-0.018c-0.292 0.206-0.548 0.422-0.784 0.656l0-0c-0.239 0.239-0.454 0.5-0.644 0.781l-0.012 0.019c-0.173 0.264-0.339 0.569-0.48 0.887l-0.016 0.041c-0.128 0.286-0.238 0.623-0.314 0.973l-0.006 0.035c-0.061 0.327-0.096 0.703-0.096 1.088s0.035 0.761 0.102 1.126l-0.006-0.038c0.089 0.382 0.194 0.708 0.32 1.022l-0.017-0.046c0.157 0.359 0.323 0.664 0.511 0.953l-0.015-0.025c0.391 0.581 0.875 1.065 1.437 1.444l0.019 0.012c0.264 0.173 0.569 0.339 0.887 0.48l0.041 0.016c0.291 0.132 0.629 0.238 0.982 0.3l0.026 0.004c0.327 0.071 0.703 0.112 1.088 0.112s0.761-0.041 1.123-0.118l-0.035 0.006c0.372-0.072 0.699-0.172 1.011-0.301l-0.035 0.013c0.359-0.157 0.664-0.323 0.953-0.511l-0.025 0.015c0.581-0.391 1.065-0.875 1.444-1.437l0.012-0.019c0.173-0.264 0.339-0.569 0.48-0.887l0.016-0.041c0.128-0.286 0.238-0.623 0.314-0.973l0.006-0.035c0.061-0.327 0.096-0.703 0.096-1.088s-0.035-0.761-0.102-1.126l0.006 0.038c-0.089-0.382-0.194-0.708-0.32-1.022l0.017 0.046c-0.157-0.359-0.323-0.664-0.511-0.953l0.015 0.025c-0.391-0.581-0.875-1.065-1.437-1.444l-0.019-0.012c-0.264-0.173-0.569-0.339-0.887-0.48l-0.041-0.016c-0.286-0.128-0.623-0.238-0.973-0.314l-0.035-0.006z"></path>
</symbol>
<symbol id="smartfone-icon" viewBox="0 0 19 32">
<path d="M16.104 1.882c0.463 0 0.838 0.375 0.838 0.838v0 26.56c0 0.463-0.375 0.838-0.838 0.838v0h-13.384c-0.463 0-0.838-0.375-0.838-0.838v0-26.56c0-0.463 0.375-0.838 0.838-0.838v0h13.384zM16.104 0h-13.384c-1.5 0.005-2.715 1.22-2.72 2.72v26.56c0.005 1.5 1.22 2.715 2.72 2.72h13.384c1.5-0.005 2.715-1.22 2.72-2.72v-26.56c-0.005-1.5-1.22-2.715-2.72-2.72h-0z"></path>
<path d="M14.936 6.504v17.384h-11.172v-17.384h11.172zM15.078 5.562h-11.416c-0.008-0-0.018-0-0.028-0-0.447 0-0.809 0.362-0.809 0.809 0 0 0 0 0 0.001v-0 17.656c0 0.442 0.358 0.8 0.8 0.8h11.435c0.442 0 0.8-0.358 0.8-0.8v0-17.656c0-0 0-0 0-0 0-0.444-0.357-0.804-0.8-0.809h-0.001z"></path>
<path d="M12.235 4.442v0h-5.647c-0.26 0-0.471-0.211-0.471-0.471s0.211-0.471 0.471-0.471v0 0h5.647c0.26 0 0.471 0.211 0.471 0.471v0c0 0.26-0.211 0.471-0.471 0.471v0z"></path>
<path d="M9.525 29.111c-0.003 0-0.006 0-0.009 0-1.138 0-2.061-0.923-2.061-2.061s0.923-2.061 2.061-2.061c1.138 0 2.061 0.923 2.061 2.061v0c0 0.003 0 0.006 0 0.009 0 1.133-0.919 2.052-2.052 2.052 0 0 0 0-0 0v0zM9.525 25.939c-0.003-0-0.006-0-0.009-0-0.619 0-1.12 0.501-1.12 1.12s0.501 1.12 1.12 1.12c0.619 0 1.12-0.501 1.12-1.12 0-0.003 0-0.007-0-0.010v0c0-0.613-0.497-1.111-1.111-1.111v0z"></path>
</symbol>
<symbol id="soft-skills-icon" viewBox="0 0 30 32">
<path d="M20.008 32.030h-1.6v-4.312c-0-0.003-0-0.006-0-0.009 0-0.262 0.132-0.492 0.333-0.63l0.003-0.002c0.127-0.099 0.29-0.159 0.466-0.159 0.084 0 0.165 0.014 0.24 0.039l-0.005-0.002 1.722 0.533c0.172 0.028 0.37 0.044 0.572 0.044 1.397 0 2.613-0.773 3.243-1.915l0.010-0.019c0.372-0.729 0.591-1.59 0.591-2.501 0-0.192-0.010-0.383-0.029-0.57l0.002 0.024v-2.85c0-0.001 0-0.002 0-0.004 0-0.319 0.184-0.594 0.452-0.726l0.005-0.002 2.941-1.356-3.368-4.952c-0.085-0.124-0.136-0.277-0.137-0.442v-1.295c0-0.015 0-0.032 0-0.049 0-0.374-0.056-0.734-0.16-1.074l0.007 0.026c-0.648-2.633-2.151-4.844-4.192-6.379l-0.029-0.021-1.265-0.564c-1.739-0.816-3.777-1.292-5.926-1.292-2.323 0-4.515 0.556-6.452 1.543l0.081-0.037-1.021 0.533c-2.153 1.731-3.718 4.113-4.401 6.846l-0.019 0.088c0 0.137-0.29 1.432-0.427 2.834-0.028 0.263-0.044 0.568-0.044 0.877 0 1.114 0.206 2.18 0.582 3.161l-0.020-0.061 0.091 0.259c0.272 0.704 0.61 1.312 1.021 1.865l-0.015-0.021c0.908 1.16 1.656 2.503 2.178 3.953l0.032 0.1c0.466 1.634 0.735 3.511 0.735 5.451 0 0.307-0.007 0.613-0.020 0.916l0.002-0.043v1.966h-1.615v-1.905c0.013-0.261 0.020-0.567 0.020-0.875 0-1.765-0.241-3.473-0.692-5.095l0.032 0.133c-0.482-1.399-1.143-2.611-1.973-3.687l0.022 0.030c-0.487-0.64-0.898-1.375-1.199-2.164l-0.020-0.061-0.091-0.259c-0.449-1.128-0.709-2.435-0.709-3.803 0-0.319 0.014-0.635 0.042-0.946l-0.003 0.040c0.118-1.185 0.279-2.224 0.492-3.245l-0.034 0.198c0.824-3.199 2.643-5.889 5.103-7.793l0.033-0.024 0.107-0.076 1.097-0.564c2.086-1.085 4.555-1.722 7.173-1.722 2.371 0 4.62 0.522 6.639 1.458l-0.098-0.041 1.326 0.594h0.122c2.409 1.772 4.162 4.313 4.903 7.256l0.019 0.089c0.129 0.455 0.206 0.979 0.213 1.52l0 0.004v1.036l3.17 4.891s0 0 0 0.076c0.126 0.217 0.2 0.477 0.2 0.754 0 0.172-0.028 0.337-0.081 0.491l0.003-0.011c-0.135 0.412-0.417 0.744-0.784 0.941l-0.009 0.004-2.408 1.143v2.301c0.015 0.176 0.024 0.38 0.024 0.586 0 1.193-0.291 2.318-0.805 3.309l0.019-0.040c-0.884 1.63-3.368 3.459-5.73 2.651l-0.686-0.213z"></path>
<path d="M6.629 22.4c-0.005 0-0.011 0-0.016 0-0.274 0-0.509-0.168-0.607-0.407l-0.002-0.004c-0.027-0.071-0.043-0.153-0.043-0.239 0-0.236 0.119-0.443 0.3-0.567l0.002-0.002 0.762-0.518c0.617-0.426 1.055-1.074 1.201-1.826l0.003-0.018 0.152-0.823c-1.911-1.321-3.162-3.48-3.215-5.935l-0-0.008c0-4.312 4.145-7.832 9.143-7.832s9.31 3.52 9.31 7.832-4.145 7.787-9.234 7.787c-0.043 0.001-0.093 0.001-0.143 0.001-0.726 0-1.434-0.072-2.119-0.211l0.068 0.012-0.549 0.762c-0.574 0.789-1.429 1.344-2.415 1.52l-0.023 0.003-2.453 0.442zM14.385 5.638c-4.343 0-7.893 2.91-7.893 6.491 0.076 2.165 1.269 4.035 3.019 5.059l0.029 0.016c0.184 0.115 0.305 0.316 0.305 0.545 0 0.050-0.006 0.098-0.016 0.145l0.001-0.004-0.229 1.25c-0.123 0.579-0.351 1.090-0.664 1.537l0.009-0.013c0.636-0.132 1.169-0.496 1.519-0.998l0.005-0.008 0.808-1.128c0.114-0.165 0.302-0.271 0.515-0.271 0.095 0 0.185 0.021 0.266 0.059l-0.004-0.002c0.685 0.184 1.472 0.29 2.283 0.29 0.017 0 0.034-0 0.051-0h-0.003c4.358 0 7.909-2.91 7.909-6.476s-3.55-6.568-7.909-6.568z"></path>
<path d="M13.928 15.726c-0.26-0.004-0.49-0.127-0.639-0.318l-0.001-0.002-2.514-3.337c-0.102-0.134-0.163-0.303-0.163-0.487 0-0.26 0.123-0.491 0.314-0.639l0.002-0.001c0.131-0.105 0.3-0.169 0.483-0.169 0.258 0 0.486 0.126 0.628 0.319l0.002 0.002 1.844 2.438 3.23-4.937c0.145-0.215 0.388-0.355 0.663-0.355 0.44 0 0.797 0.357 0.797 0.797 0 0.165-0.050 0.318-0.136 0.445l0.002-0.003-3.84 5.882c-0.145 0.207-0.374 0.346-0.637 0.366l-0.003 0z"></path>
</symbol>
<symbol id="tech-skills-icon" viewBox="0 0 30 32">
<path d="M20.008 32.030h-1.6v-4.312c-0-0.003-0-0.006-0-0.009 0-0.262 0.132-0.492 0.333-0.63l0.003-0.002c0.127-0.099 0.29-0.159 0.466-0.159 0.084 0 0.165 0.014 0.24 0.039l-0.005-0.002 1.722 0.533c0.172 0.028 0.37 0.044 0.572 0.044 1.397 0 2.613-0.773 3.243-1.915l0.010-0.019c0.372-0.729 0.591-1.59 0.591-2.501 0-0.192-0.010-0.383-0.029-0.57l0.002 0.024v-2.85c0-0.001 0-0.002 0-0.004 0-0.319 0.184-0.594 0.452-0.726l0.005-0.002 2.941-1.356-3.368-4.952c-0.085-0.124-0.136-0.277-0.137-0.442v-1.295c0-0.015 0-0.032 0-0.049 0-0.374-0.056-0.734-0.16-1.074l0.007 0.026c-0.648-2.633-2.151-4.844-4.192-6.379l-0.029-0.021-1.265-0.564c-1.739-0.816-3.777-1.292-5.926-1.292-2.323 0-4.515 0.556-6.452 1.543l0.081-0.037-1.021 0.533c-2.153 1.731-3.718 4.113-4.401 6.846l-0.019 0.088c0 0.137-0.29 1.432-0.427 2.834-0.028 0.263-0.044 0.568-0.044 0.877 0 1.114 0.206 2.18 0.582 3.161l-0.020-0.061 0.091 0.259c0.272 0.704 0.61 1.312 1.021 1.865l-0.015-0.021c0.908 1.16 1.656 2.503 2.178 3.953l0.032 0.1c0.466 1.634 0.735 3.511 0.735 5.451 0 0.307-0.007 0.613-0.020 0.916l0.002-0.043v1.966h-1.615v-1.905c0.013-0.261 0.020-0.567 0.020-0.875 0-1.765-0.241-3.473-0.692-5.095l0.032 0.133c-0.482-1.399-1.143-2.611-1.973-3.687l0.022 0.030c-0.487-0.64-0.898-1.375-1.199-2.164l-0.020-0.061-0.091-0.259c-0.449-1.128-0.709-2.435-0.709-3.803 0-0.319 0.014-0.635 0.042-0.946l-0.003 0.040c0.118-1.185 0.279-2.224 0.492-3.245l-0.034 0.198c0.824-3.199 2.643-5.889 5.103-7.793l0.033-0.024 0.107-0.076 1.097-0.564c2.086-1.085 4.555-1.722 7.173-1.722 2.371 0 4.62 0.522 6.639 1.458l-0.098-0.041 1.326 0.594h0.122c2.409 1.772 4.162 4.313 4.903 7.256l0.019 0.089c0.129 0.455 0.206 0.979 0.213 1.52l0 0.004v1.036l3.17 4.891s0 0 0 0.076c0.126 0.217 0.2 0.477 0.2 0.754 0 0.172-0.028 0.337-0.081 0.491l0.003-0.011c-0.135 0.412-0.417 0.744-0.784 0.941l-0.009 0.004-2.408 1.143v2.301c0.015 0.176 0.024 0.38 0.024 0.586 0 1.193-0.291 2.318-0.805 3.309l0.019-0.040c-0.884 1.63-3.368 3.459-5.73 2.651l-0.686-0.213z"></path>
<path d="M13.714 24.29c-0.008 0-0.018 0-0.027 0-0.424 0-0.814-0.15-1.119-0.399l0.003 0.003c-0.401-0.329-0.655-0.826-0.655-1.381 0-0.002 0-0.004 0-0.006v0-0.747h-1.996c-0.295 0-0.533-0.239-0.533-0.533v0-9.707h-0.747c-0.442-0.008-0.842-0.181-1.144-0.458l0.001 0.001h-0.091c-0.367-0.331-0.596-0.807-0.596-1.337 0-0.437 0.156-0.838 0.415-1.15l-0.002 0.003c0.334-0.398 0.831-0.65 1.386-0.655h0.732v-2.133c0-0.295 0.239-0.533 0.533-0.533v0h7.619c0.295 0 0.533 0.239 0.533 0.533v2.606c0 0.295-0.239 0.533-0.533 0.533v0c-0.034 0.011-0.074 0.017-0.114 0.017s-0.080-0.006-0.117-0.018l0.003 0.001h-1.021c-0 0-0 0-0 0-0.228 0-0.431 0.107-0.562 0.273l-0.001 0.002c-0.124 0.131-0.2 0.308-0.2 0.503s0.076 0.372 0.201 0.503l-0-0h0.091c0.12 0.113 0.279 0.187 0.455 0.198l0.002 0h1.387c0.005-0 0.010-0 0.015-0 0.286 0 0.518 0.232 0.518 0.518 0 0.005-0 0.011-0 0.016l0-0.001v4.373h0.747c0.443 0 0.846 0.174 1.144 0.458l-0.001-0.001h0.091c0.365 0.335 0.593 0.815 0.593 1.348 0 0.431-0.149 0.827-0.398 1.139l0.003-0.004c-0.329 0.401-0.826 0.655-1.381 0.655-0.002 0-0.004 0-0.006 0h-0.716v1.996c-0.002 0.152-0.059 0.291-0.153 0.397l0.001-0.001c-0.101 0.091-0.234 0.148-0.38 0.152l-0.001 0h-2.133v0.762c-0.017 0.443-0.194 0.842-0.473 1.144l0.001-0.001v0.091c-0.293 0.472-0.79 0.792-1.365 0.838l-0.006 0zM10.53 20.632h1.768c0.295 0 0.533 0.239 0.533 0.533v0 1.265c0.004 0.232 0.109 0.438 0.273 0.578l0.001 0.001c0.129 0.128 0.307 0.206 0.503 0.206s0.374-0.079 0.503-0.206l-0 0 0.152-0.122c0.111-0.125 0.18-0.291 0.183-0.472v-1.265c0.008-0.288 0.244-0.518 0.533-0.518 0 0 0 0 0 0h2.103v-1.996c0.004-0.147 0.061-0.28 0.153-0.381l-0 0.001c0.097-0.1 0.231-0.164 0.38-0.168h1.265c0.002 0 0.005 0 0.008 0 0.226 0 0.427-0.107 0.555-0.273l0.001-0.002c0.104-0.127 0.166-0.291 0.166-0.47 0-0.218-0.093-0.414-0.242-0.55l-0.001-0-0.091-0.076c-0.125-0.112-0.29-0.181-0.472-0.183h-1.265c-0.288-0.009-0.518-0.244-0.518-0.533 0-0 0-0 0-0v0-1.798h-1.524v0.762c-0.020 0.445-0.189 0.847-0.459 1.161l0.002-0.003-0.076 0.091c-0.328 0.366-0.802 0.595-1.329 0.595-0.435 0-0.833-0.156-1.142-0.414l0.003 0.002h-0.076c-0.402-0.338-0.655-0.84-0.655-1.402v-0.777h-1.31zM10.53 13.135h1.783c0.002-0 0.005-0 0.008-0 0.286 0 0.518 0.232 0.518 0.518 0 0.032-0.003 0.064-0.009 0.095l0.001-0.003v1.265c-0 0.004-0 0.008-0 0.012 0 0.221 0.1 0.419 0.258 0.55l0.001 0.001h0.076c0.131 0.124 0.308 0.2 0.503 0.2s0.372-0.076 0.503-0.201l-0 0v-0.091c0.113-0.118 0.183-0.278 0.183-0.454 0-0.006-0-0.013-0-0.019l0 0.001v-1.265c0-0.286 0.232-0.518 0.518-0.518v0h2.072v-1.524h-0.869c-0.448-0.018-0.852-0.194-1.16-0.474l0.002 0.001h-0.091c-0.383-0.334-0.624-0.824-0.624-1.369 0-0.524 0.222-0.996 0.578-1.327l0.001-0.001c0.321-0.41 0.816-0.67 1.371-0.67 0 0 0 0 0 0h0.747v-1.524h-6.461v1.935c0 0.295-0.239 0.533-0.533 0.533v0h-1.265c-0.002-0-0.005-0-0.008-0-0.226 0-0.427 0.107-0.555 0.273l-0.001 0.002c-0.107 0.126-0.172 0.291-0.172 0.472 0 0.219 0.096 0.415 0.248 0.549l0.001 0.001c0.128 0.107 0.291 0.175 0.471 0.183l0.002 0h1.265c0.288 0.008 0.518 0.244 0.518 0.533 0 0 0 0 0 0v0z"></path>
</symbol>
<symbol id="ukraine-map-icon" viewBox="0 0 49 32">
<path fill="#0057b8" style="fill: var(--color41, #0057b8)" d="M48.517 13.366c0.222 0 0.222 0 0.222-0.222 0.125-0.123 0.213-0.283 0.245-0.462l0.001-0.005c-0.714 0-0.714-0.246-0.96-0.468s-0.246-0.246 0-0.468 0.246-0.246 0-0.246h-0.492c-0.222 0.246-0.714-0.222-0.714-0.443s0-0.246-0.492-0.246-0.468 0-0.468-0.222-0.492-0.246-0.492-0.246h-0.468l-0.246-0.222c-0.030 0.014-0.066 0.023-0.103 0.023-0.136 0-0.246-0.11-0.246-0.246 0-0.017 0.002-0.033 0.005-0.049l-0 0.002h-0.246c-0.246 0-0.468 0-0.468-0.222s-0.492-0.246-0.492 0c0 0 0 0.001 0 0.001 0 0.122-0.099 0.222-0.222 0.222-0.009 0-0.017-0.001-0.026-0.001l0.001 0c-0.246 0-0.246 0-0.714-0.222s-0.714-0.714-0.714-0.935c0-0.136-0.11-0.246-0.246-0.246v0l-0.246-0.222c-0.246-0.222-0.246-0.222-0.492 0-0.182 0.027-0.342 0.107-0.468 0.222l0.001-0.001c-0.246 0-0.96 0.246-0.96 0.468s-0.246 0.246-0.492 0-0.246-0.222-0.492-0.222-0.222 0-0.468-0.246c-0.185-0.204-0.452-0.332-0.748-0.332-0.167 0-0.325 0.041-0.464 0.113l0.006-0.003h-0.246l-0.492-0.468c-0.141-0.153-0.228-0.358-0.228-0.584 0-0.037 0.002-0.074 0.007-0.11l-0 0.004c0-0.246 0-0.246-0.246-0.714-0.156-0.148-0.252-0.357-0.252-0.589 0-0.035 0.002-0.070 0.007-0.105l-0 0.004c0.246 0 0-0.222-0.246-0.222s-0.246 0-0.468-0.468c0-0.136-0.11-0.246-0.246-0.246v0h-0.96c0-0.222 0-0.222-0.492-0.222v0c0.246-0.246 0.246-0.468 0-0.246-0.131-0.118-0.221-0.281-0.246-0.464l-0-0.004c0-0.222 0-0.468-0.246-0.468s0-0.468 0.246-0.468c0.191-0.022 0.36-0.103 0.493-0.222l-0.001 0.001-0.492-0.468c-0.246-0.443-0.246-0.443-0.246-0.665 0.004-0.031 0.006-0.068 0.006-0.104 0-0.238-0.096-0.453-0.253-0.609v0c-0.246-0.689-0.492-0.935-0.738-0.689s-0.222 0.222-0.222 0-0.985 0-1.452 0.222-0.492 0.246-1.206 0-0.714-0.222-0.714 0.246-0.246 0.689-0.492 0.689-0.714 0.246-0.714 0-0.246-0.222-0.985-0.222-0.468 0-0.714 0.222c-0.063 0.064-0.15 0.103-0.246 0.103s-0.184-0.040-0.246-0.103l-0-0c-0.468 0-0.468 0-0.468 0.246-0.131 0.118-0.221 0.281-0.246 0.464l-0 0.004-0.246 0.222c-0.018 0.189-0.109 0.353-0.245 0.467l-0.001 0.001c-0.222 0.468-0.222 0.468 0 0.935s0.246 0.468 0 0.689-0.222 0.468-0.468 0.246c-0.125-0.123-0.213-0.283-0.245-0.462l-0.001-0.005c-0.246-0.468-0.492-0.468-0.96-0.246h-0.738c-0.222 0-0.222 0-0.468 0.246s-0.492 0-0.738-0.468-0.222-0.714-0.96-0.246c-0.246 0-0.246 0.246-0.246 0.468s-0.222 0.246-0.468-0.222-0.246-0.246-0.492-0.246-0.246 0-0.468-0.222h-0.246c-0.246 0.222-0.492 0.222-0.492 0s-0.246 0-0.468 0.222c0 0.136-0.11 0.246-0.246 0.246v0c-0.246 0-0.246 0 0-0.246s-0.345-0.468-0.837-0.468-0.492 0-0.492-0.222c-0.034 0.002-0.073 0.003-0.112 0.003-0.309 0-0.601-0.074-0.859-0.205l0.011 0.005c-0.96 0-1.206 0-1.452-0.246h-0.714c-0.43-0.135-0.926-0.224-1.44-0.246l-0.012-0h-2.658c-0.714 0-0.714 0-0.714 0.468-0.036 0.246-0.241 0.433-0.491 0.443l-0.001 0c-0.16 0.155-0.378 0.251-0.618 0.251-0.034 0-0.067-0.002-0.1-0.006l0.004 0c-0.492-0.246-0.738 0-0.738 0.222v0.714c-0.004 0.030-0.006 0.065-0.006 0.101 0 0.231 0.097 0.44 0.252 0.588l0 0c0.492 0.246 0.492 0.468 0.714 0.714s0 0.443 0.246 0.443l0.246 0.246s-0.246 0-0.246 0.222v0.246c0.246 0 0.246 0.468 0.246 0.689-0.028 0.435-0.315 0.796-0.706 0.933l-0.007 0.002c-0.492 0-1.452 1.157-2.462 2.338-0.738 0.689-0.738 0.911-0.738 1.157v0.689c0 0.468 0 0.468 0.246 0.714 0.106 0.095 0.172 0.232 0.172 0.385 0 0.003-0 0.006-0 0.009v-0h46.277s0.123-0.172 0.394-0.172z"></path>
<path fill="#ffd700" style="fill: var(--color42, #ffd700)" d="M48.271 13.834c-0.090-0.058-0.149-0.157-0.149-0.27 0-0.009 0-0.018 0.001-0.026l-0 0.001h-46.228s0 0.172-0.172 0v0h-0.246c-0.044-0.012-0.095-0.020-0.148-0.020s-0.103 0.007-0.152 0.021l0.004-0.001h-0.148s0 0 0 0c-0.023 0.188-0.113 0.351-0.245 0.467l-0.001 0.001c-0.031 0.178-0.12 0.331-0.245 0.442l-0.001 0.001c-0.025 0.187-0.115 0.349-0.245 0.467l-0.001 0.001c-0.222 0.468-0.468 0.935 0 0.935s0.246 0 0.246 0.246 0.246 0.222 0.246 0.222 0.246 0.246 0.492 0.246c0 0.122 0.099 0.222 0.222 0.222v0c0.246 0 0.492 0 0.492 0.468v0.222h0.222c0.008 0.001 0.017 0.002 0.026 0.002 0.122 0 0.222-0.099 0.222-0.222 0-0.009-0.001-0.018-0.002-0.027l0 0.001h0.222l0.246 0.222c0.246 0.222 0.492 0.222 0.96 0.222h2.462l0.492 0.468c0.468 0.468 0.714 0.468 0.714 0.468s0.246 0 0.492-0.468 0.246-0.222 0.468-0.222 2.191-0.246 2.191-0.468c0.12-0.122 0.201-0.284 0.221-0.464l0-0.004c0.025-0.256 0.234-0.456 0.491-0.468l0.001-0c0.492 0.246 0.714 0 0.714 0s0-0.222 0.246 0h0.246c0-0.222 0-0.222 0.492-0.222s0.714 0 0.714-0.246 0.246-0.222 0.492-0.222 0.714 0 0.96 0.222 0.222 0.246 0.468 0.246c0.007-0.001 0.016-0.001 0.025-0.001 0.122 0 0.222 0.099 0.222 0.222 0 0 0 0.001 0 0.001v-0c0 0.246 0.246 0.246 0.492 0.246s0.222 0 0.222 0.222v0.246s0.246 0 0.246 0.222c0.246-0.222 0.738-0.222 0.738 0 0.468 0.689 0.468 0.689 0.714 0.468h0.246c0 0.222 0.246 0.222 0 0.468v0.566c-0.246 0.468-0.246 0.714 0 0.935 0.468-0.222 0.714 0 0.714 0.246l0.246 0.222h0.246v0.689c-0.246 0-0.246 0.246 0 0.246v0.222c0 0.246 0 0.246 0.468 0.468l0.492 0.246v0.468c0 0.468 0 0.468 0.246 0.689s0.246 0.222-0.246 0.468-0.492 0-0.492-0.246-0.222-0.222-0.222 0-0.246 0.246-0.492 0-0.246-0.222-0.246 0h-0.517c0 0.246-0.246 0.246-0.246-0.222s0-0.222-0.246-0.222-0.492 0.222-0.492 0.911 0 0.935-0.468 1.182-0.246 0-0.246 0.222 0 0.246-0.246 0.468c-0.156 0.148-0.252 0.357-0.252 0.589 0 0.035 0.002 0.070 0.007 0.105l-0-0.004c0 0.246 0 0.468-0.222 0.246s-0.492 0-0.246 0.468 1.674 0.935 1.674 0.468 0-0.246 0.246 0 0.246 0 0.492-0.246c0.714-0.468 1.452-0.468 1.674 0.246 0 0.222 0.246 0.222 0.246-0.246s0-0.468-0.246-0.222-0.222 0-0.222-0.246v-0.689l0.222-0.468 0.246 0.222c0 0.136 0.11 0.246 0.246 0.246v0h0.246c0-0.246 0.468-0.689 0.468-0.468h0.246c0 0.468 0.96-0.689 1.452-1.403 0.033-0.185 0.121-0.345 0.246-0.468l0-0v-0.222c0-0.246 0-0.246 0.246-0.468s0.468-0.222 0.714-0.222h1.206c0.492 0 0.492 0 0.492-0.468s0-0.468 0.222-0.468v-0.246c-0.139-0.172-0.223-0.392-0.223-0.633 0-0.020 0.001-0.040 0.002-0.059l-0 0.003v-0.246l0.222 0.246v0.862c0 0.468 0 0.468 0.246 0.689 0.169 0.115 0.378 0.183 0.603 0.183s0.434-0.069 0.607-0.186l-0.004 0.002h0.246c-0.129 0.13-0.298 0.218-0.488 0.246l-0.005 0.001c-0.222 0.222-0.222 0.222-0.714 0.222s-1.698-0.222-1.698 0c0.132 0.119 0.301 0.199 0.488 0.221l0.004 0c0.492 0 0.714 0.246 0.714 0.468-0 0-0.001 0-0.001 0-0.122 0-0.222 0.099-0.222 0.222 0 0.009 0 0.017 0.001 0.026l-0-0.001c-0.246 0-0.492 0.222-0.246 0.222 0.366 0.114 0.684 0.274 0.971 0.475l-0.011-0.007 0.246 0.246c0.246 0 2.166-0.246 2.166-0.246h0.32c0 0.246 0.468 0.468 0.714 0.468l0.246-0.222c0-0.246 0-0.246 0.246 0 0.12 0.122 0.201 0.284 0.221 0.464l0 0.004c0 0.222 0 0.222 0.246 0.222s0.246 0 0 0.222c-0.123 0.125-0.283 0.213-0.462 0.245l-0.005 0.001c-0.191 0.022-0.36 0.102-0.493 0.222l0.001-0.001-0.246 0.246h-0.246l-0.222 0.271c-0.129 0.13-0.298 0.218-0.488 0.246l-0.005 0.001c-0.246 0.222-0.468 0.222-0.714 0.468s-0.492 0.468-0.246 0.689h0.492c0.222-0.222 0.468 0 0.96 0.468 0.157 0.142 0.366 0.23 0.595 0.23 0.042 0 0.083-0.003 0.123-0.009l-0.005 0.001c0.246 0 0.246 0 0.492 0.246 0.104 0.126 0.167 0.29 0.167 0.468s-0.063 0.341-0.168 0.469l0.001-0.001c-0.033 0.185-0.121 0.345-0.246 0.468l-0 0c0 0.222 0 0.222-0.246 0.222s-0.246 0 0 0.246l0.246 0.222c0.136 0 0.246 0.11 0.246 0.246v0c0 0.222 0.714 0.222 0.96 0.222s0.96-0.468 0.96-0.935c0.325-0.322 0.732-0.562 1.187-0.685l0.019-0.004h0.492c0.222 0 0.222 0 0.222-0.246s0.246-0.222 0.492-0.468 0.246-0.222 0.492-0.468c0.131-0.102 0.299-0.163 0.48-0.163s0.349 0.061 0.482 0.165l-0.002-0.001c0.156 0.156 0.371 0.253 0.609 0.253 0.037 0 0.073-0.002 0.109-0.007l-0.004 0h0.738c0.222 0 0.222 0 0.222-0.468s0.246-0.689 0.492-0.689h0.246c0-0.246-0.246-0.246-0.738-0.246-0.029-0.003-0.062-0.005-0.096-0.005-0.241 0-0.459 0.096-0.618 0.252l0-0c-0.246 0.222-0.246 0.222-0.492 0s-0.222-0.246-0.468 0c-0.492 0.689-1.206 0.222-1.945-1.182s-0.714-2.092-0.222-2.092c0.335-0.107 0.595-0.36 0.711-0.681l0.002-0.008c0-0.246 0-0.246 0.246-0.246l0.246 0.246c0 0.122 0.099 0.222 0.222 0.222v0c0.432-0.421 0.907-0.802 1.416-1.135l0.036-0.022c0.492-0.222 0.738-0.222 0.96 0h0.246c0.132-0.119 0.301-0.199 0.488-0.221l0.004-0c0.468-0.246 0.468-0.246 0.714 0l0.246 0.222v-0.197c0-0.246 0.96-0.714 1.206-0.714h0.246c0.023-0.188 0.113-0.351 0.245-0.467l0.001-0.001c0.222-0.222 0.222-0.222 0.96-0.222h0.96c0.246 0 0.246 0 0.246-0.246s0-0.468 0.222-0.468v-0.222c-0.222 0-0.222-0.246 0-0.468 0.033-0.185 0.121-0.345 0.246-0.468l0-0c0-0.222 0.246-0.222 0.96-0.468 0.191-0.022 0.36-0.102 0.493-0.222l-0.001 0.001c0.018-0.189 0.109-0.353 0.245-0.467l0.001-0.001c0.246-0.246 0.246-0.246 0.96 0h1.698v-1.502c0-0.222 0-0.222 0.222-0.468s0.246-0.468 0-0.468-0.468 0-0.222-0.222 0-0.935-0.246-0.935h-0.246c-0.246 0 0-0.468 0.246-0.714s0.246-0.222 0.468-0.222 0.492 0 0.492-0.222h-0.492c-0.295 0.098-0.542 0.098-0.542-0.148zM25.354 22.449c-0.246 0.246-0.246 0.246-0.246 0s0-0.222 0.246 0c-0.246-0.222 0-0.222 0 0v0z"></path>
</symbol>
<symbol id="vite-logo-icon" viewBox="0 0 32 32">
<path fill="#8250cb" style="fill: var(--color1, #8250cb)" d="M31.904 5.184l-15.104 26.4c-0.142 0.252-0.408 0.42-0.713 0.42-0.143 0-0.278-0.037-0.395-0.102l0.004 0.002c-0.133-0.078-0.242-0.187-0.318-0.316l-0.002-0.004-15.28-26.4c-0.059-0.11-0.093-0.24-0.093-0.378 0-0.303 0.165-0.567 0.409-0.707l0.004-0.002c0.113-0.058 0.246-0.092 0.387-0.092 0.050 0 0.099 0.004 0.146 0.012l-0.005-0.001 15.056 2.64h0.288l14.752-2.64c0.042-0.008 0.090-0.012 0.139-0.012 0.395 0 0.724 0.287 0.788 0.663l0.001 0.005c0.010 0.048 0.016 0.103 0.016 0.16 0 0.128-0.029 0.249-0.082 0.357l0.002-0.005z"></path>
<path fill="#fc0" style="fill: var(--color2, #fc0)" d="M20.8 0l-11.072 2.128c-0.182 0.025-0.32 0.179-0.32 0.365 0 0.001 0 0.002 0 0.003v-0l-0.608 11.2c-0 0.005-0 0.011-0 0.017 0 0.21 0.162 0.382 0.367 0.399l0.001 0h0.128l3.072-0.688c0.012-0.001 0.026-0.002 0.040-0.002 0.193 0 0.355 0.137 0.392 0.319l0 0.003c0.004 0.026 0.006 0.057 0.006 0.088s-0.002 0.062-0.006 0.091l0-0.003-0.992 4.432c-0.002 0.016-0.003 0.034-0.003 0.052 0 0.208 0.153 0.381 0.353 0.411l0.002 0h0.16l1.888-0.56c0.038-0.013 0.081-0.021 0.127-0.021 0.183 0 0.337 0.122 0.385 0.29l0.001 0.003c0.008 0.026 0.012 0.057 0.012 0.088s-0.005 0.062-0.013 0.090l0.001-0.002-1.376 6.896c-0.013 0.037-0.020 0.079-0.020 0.123 0 0.18 0.123 0.33 0.29 0.372l0.003 0.001c0.032 0.009 0.068 0.014 0.105 0.014 0.152 0 0.285-0.082 0.358-0.204l0.001-0.002 0.16-0.304 8.96-17.6c0.030-0.054 0.048-0.118 0.048-0.187 0-0.148-0.084-0.276-0.206-0.34l-0.002-0.001c-0.042-0.019-0.092-0.029-0.144-0.029s-0.102 0.011-0.146 0.030l0.002-0.001-3.2 0.592c-0.023 0.005-0.050 0.007-0.077 0.007-0.193 0-0.355-0.131-0.402-0.308l-0.001-0.003c-0.004-0.029-0.006-0.062-0.006-0.096s0.002-0.067 0.006-0.1l-0 0.004 2.16-7.056c0.012-0.036 0.018-0.077 0.018-0.12 0-0.193-0.137-0.355-0.32-0.392l-0.003-0z"></path>
</symbol>
<symbol id="webpack-logo-icon" viewBox="0 0 27 32">
<path fill="#eceff1" style="fill: var(--color43, #eceff1)" d="M13.6 0l-13.6 7.997v16.007l13.6 7.997 13.6-7.997v-16.007l-13.6-7.997z"></path>
<path fill="#0277bd" style="fill: var(--color44, #0277bd)" d="M13.205 16.401v7.194l-6.8-3.59v-7.602l6.8 3.998z"></path>
<path fill="#0277bd" style="fill: var(--color44, #0277bd)" d="M13.994 16.401v7.194l6.8-3.59v-7.602l-6.8 3.998z"></path>
<path fill="#0277bd" style="fill: var(--color44, #0277bd)" d="M13.6 15.599l-6.8-3.998 6.8-3.604 6.8 3.604-6.8 3.998z"></path>
<path fill="#81d4fa" style="fill: var(--color45, #81d4fa)" d="M13.205 2.394v4.801l-7.208 3.998-3.998-2.394 11.206-6.405z"></path>
<path fill="#81d4fa" style="fill: var(--color45, #81d4fa)" d="M13.205 29.606v-4.814l-7.208-3.998-3.998 2.407 11.206 6.405z"></path>
<path fill="#81d4fa" style="fill: var(--color45, #81d4fa)" d="M5.603 11.995l-3.998-2.394v12.797l3.998-2.394v-8.010z"></path>
<path fill="#81d4fa" style="fill: var(--color45, #81d4fa)" d="M13.994 2.394v4.801l7.208 3.998 3.998-2.394-11.206-6.405z"></path>
<path fill="#81d4fa" style="fill: var(--color45, #81d4fa)" d="M13.994 29.606v-4.814l7.208-3.998 3.998 2.407-11.206 6.405z"></path>
<path fill="#81d4fa" style="fill: var(--color45, #81d4fa)" d="M21.596 11.995l3.998-2.394v12.797l-3.998-2.394v-8.010z"></path>
</symbol>
</defs>
</svg>
